<?xml version="1.0" encoding="UTF-8" standalone="no"?>
<!DOCTYPE svg PUBLIC "-//W3C//DTD SVG 1.1//EN" "http://www.w3.org/Graphics/SVG/1.1/DTD/svg11.dtd">
<svg width="100%" height="100%" viewBox="0 0 462 89" version="1.1" xmlns="http://www.w3.org/2000/svg" xmlns:xlink="http://www.w3.org/1999/xlink" xml:space="preserve" xmlns:serif="http://www.serif.com/" style="fill-rule:evenodd;clip-rule:evenodd;stroke-linejoin:round;stroke-miterlimit:2;">
    <g transform="matrix(1,0,0,1,-1419,-11872.9)">
        <g transform="matrix(1,0,0,1,0,8009.71)">
            <g id="c" transform="matrix(1,0,0,1,1057.29,2933.43)">
                <g id="b" transform="matrix(-0.700226,0,0,0.648265,902.119,-6767.01)">
                    <rect x="111.978" y="11872.9" width="659.787" height="136.711" style="fill:white;"/>
                </g>
                <g transform="matrix(1.14412,0,0,1.24117,-87.1598,-115.028)">
                    <path d="M796.131,877.512C796.131,897.217 778.777,913.214 757.401,913.214L431.058,913.214C409.682,913.214 392.327,897.217 392.327,877.512C392.327,857.808 409.682,841.81 431.058,841.81L757.401,841.81C778.777,841.81 796.131,857.808 796.131,877.512Z" style="fill:url(#_Linear1);"/>
                </g>
                <g transform="matrix(1.13192,0,0,1.09147,-59.1867,15.3292)">
                    <path d="M472.158,878.471C472.158,880.551 471.718,882.167 470.838,883.321C469.957,884.474 468.779,885.051 467.303,885.051C466.618,885.051 466.056,884.953 465.615,884.758L465.615,882.728C466.056,883.046 466.626,883.205 467.328,883.205C469.178,883.205 470.104,881.635 470.104,878.496L470.104,867.22L472.158,867.22L472.158,878.471Z" style="fill:rgb(152,16,250);fill-rule:nonzero;"/>
                    <path d="M481.576,885.051C479.725,885.051 478.247,884.466 477.142,883.296C476.038,882.126 475.485,880.575 475.485,878.643C475.485,876.539 476.06,874.896 477.21,873.714C478.359,872.532 479.912,871.941 481.869,871.941C483.736,871.941 485.194,872.515 486.242,873.665C487.289,874.815 487.813,876.409 487.813,878.447C487.813,880.445 487.249,882.045 486.119,883.247C484.99,884.45 483.475,885.051 481.576,885.051ZM481.722,873.628C480.434,873.628 479.415,874.067 478.665,874.943C477.915,875.82 477.54,877.028 477.54,878.569C477.54,880.053 477.919,881.223 478.677,882.079C479.435,882.935 480.451,883.364 481.722,883.364C483.019,883.364 484.016,882.944 484.713,882.104C485.41,881.264 485.758,880.07 485.758,878.52C485.758,876.955 485.41,875.748 484.713,874.9C484.016,874.052 483.019,873.628 481.722,873.628Z" style="fill:rgb(152,16,250);fill-rule:nonzero;"/>
                    <path d="M492.045,869.054C491.686,869.054 491.38,868.932 491.128,868.687C490.875,868.443 490.748,868.133 490.748,867.758C490.748,867.383 490.875,867.071 491.128,866.822C491.38,866.574 491.686,866.449 492.045,866.449C492.412,866.449 492.724,866.574 492.98,866.822C493.237,867.071 493.366,867.383 493.366,867.758C493.366,868.117 493.237,868.422 492.98,868.675C492.724,868.928 492.412,869.054 492.045,869.054ZM493.023,884.758L491.017,884.758L491.017,872.234L493.023,872.234L493.023,884.758Z" style="fill:rgb(152,16,250);fill-rule:nonzero;"/>
                    <path d="M507.479,884.758L505.474,884.758L505.474,877.615C505.474,874.957 504.503,873.628 502.563,873.628C501.56,873.628 500.73,874.005 500.074,874.76C499.418,875.514 499.089,876.466 499.089,877.615L499.089,884.758L497.084,884.758L497.084,872.234L499.089,872.234L499.089,874.313L499.138,874.313C500.084,872.731 501.454,871.941 503.248,871.941C504.617,871.941 505.665,872.383 506.391,873.268C507.116,874.152 507.479,875.43 507.479,877.102L507.479,884.758Z" style="fill:rgb(152,16,250);fill-rule:nonzero;"/>
                    <path d="M518.389,884.758L518.389,867.22L523.232,867.22C529.412,867.22 532.502,870.069 532.502,875.769C532.502,878.476 531.644,880.65 529.928,882.293C528.211,883.936 525.914,884.758 523.036,884.758L518.389,884.758ZM520.443,869.079L520.443,882.899L523.061,882.899C525.36,882.899 527.149,882.283 528.43,881.052C529.71,879.821 530.35,878.076 530.35,875.817C530.35,871.325 527.961,869.079 523.183,869.079L520.443,869.079Z" style="fill:rgb(152,16,250);fill-rule:nonzero;"/>
                    <path d="M536.709,869.054C536.351,869.054 536.045,868.932 535.792,868.687C535.539,868.443 535.413,868.133 535.413,867.758C535.413,867.383 535.539,867.071 535.792,866.822C536.045,866.574 536.351,866.449 536.709,866.449C537.076,866.449 537.388,866.574 537.645,866.822C537.902,867.071 538.03,867.383 538.03,867.758C538.03,868.117 537.902,868.422 537.645,868.675C537.388,868.928 537.076,869.054 536.709,869.054ZM537.688,884.758L535.682,884.758L535.682,872.234L537.688,872.234L537.688,884.758Z" style="fill:rgb(152,16,250);fill-rule:nonzero;"/>
                    <path d="M540.99,884.305L540.99,882.153C542.083,882.96 543.285,883.364 544.598,883.364C546.359,883.364 547.24,882.776 547.24,881.602C547.24,881.268 547.164,880.985 547.013,880.752C546.862,880.52 546.659,880.314 546.402,880.135C546.145,879.955 545.843,879.794 545.497,879.652C545.15,879.509 544.777,879.36 544.378,879.205C543.823,878.985 543.336,878.763 542.916,878.539C542.496,878.314 542.146,878.062 541.864,877.78C541.583,877.499 541.371,877.179 541.228,876.82C541.086,876.462 541.014,876.042 541.014,875.561C541.014,874.974 541.149,874.454 541.418,874.001C541.687,873.549 542.046,873.17 542.494,872.864C542.943,872.558 543.454,872.328 544.029,872.173C544.604,872.018 545.197,871.941 545.809,871.941C546.893,871.941 547.863,872.128 548.719,872.503L548.719,874.533C547.798,873.93 546.738,873.628 545.54,873.628C545.165,873.628 544.826,873.671 544.524,873.757C544.223,873.842 543.964,873.963 543.748,874.118C543.532,874.272 543.365,874.458 543.246,874.674C543.128,874.89 543.069,875.129 543.069,875.389C543.069,875.716 543.128,875.989 543.246,876.209C543.365,876.429 543.538,876.625 543.766,876.796C543.994,876.967 544.272,877.122 544.598,877.261C544.924,877.399 545.295,877.55 545.711,877.713C546.265,877.925 546.763,878.143 547.203,878.367C547.643,878.592 548.018,878.844 548.328,879.126C548.638,879.407 548.876,879.731 549.044,880.098C549.211,880.465 549.294,880.901 549.294,881.407C549.294,882.026 549.158,882.564 548.885,883.021C548.611,883.478 548.247,883.857 547.79,884.158C547.333,884.46 546.807,884.684 546.212,884.831C545.617,884.978 544.993,885.051 544.341,885.051C543.053,885.051 541.936,884.803 540.99,884.305Z" style="fill:rgb(152,16,250);fill-rule:nonzero;"/>
                    <path d="M560.913,884.183C559.951,884.762 558.809,885.051 557.488,885.051C555.703,885.051 554.262,884.47 553.165,883.308C552.068,882.147 551.52,880.64 551.52,878.789C551.52,876.727 552.111,875.069 553.294,873.818C554.476,872.566 556.053,871.941 558.027,871.941C559.127,871.941 560.098,872.144 560.937,872.552L560.937,874.607C560.008,873.954 559.013,873.628 557.953,873.628C556.673,873.628 555.623,874.087 554.804,875.004C553.985,875.921 553.575,877.126 553.575,878.618C553.575,880.086 553.96,881.244 554.731,882.092C555.501,882.94 556.534,883.364 557.831,883.364C558.923,883.364 559.951,883.001 560.913,882.275L560.913,884.183Z" style="fill:rgb(152,16,250);fill-rule:nonzero;"/>
                    <path d="M569.181,885.051C567.33,885.051 565.852,884.466 564.747,883.296C563.642,882.126 563.09,880.575 563.09,878.643C563.09,876.539 563.665,874.896 564.814,873.714C565.964,872.532 567.517,871.941 569.474,871.941C571.341,871.941 572.799,872.515 573.846,873.665C574.894,874.815 575.418,876.409 575.418,878.447C575.418,880.445 574.853,882.045 573.724,883.247C572.595,884.45 571.08,885.051 569.181,885.051ZM569.327,873.628C568.039,873.628 567.02,874.067 566.27,874.943C565.52,875.82 565.145,877.028 565.145,878.569C565.145,880.053 565.524,881.223 566.282,882.079C567.04,882.935 568.055,883.364 569.327,883.364C570.624,883.364 571.62,882.944 572.318,882.104C573.015,881.264 573.363,880.07 573.363,878.52C573.363,876.955 573.015,875.748 572.318,874.9C571.62,874.052 570.624,873.628 569.327,873.628Z" style="fill:rgb(152,16,250);fill-rule:nonzero;"/>
                    <path d="M585.153,874.264C584.803,873.995 584.297,873.861 583.637,873.861C582.78,873.861 582.065,874.264 581.49,875.071C580.915,875.879 580.628,876.979 580.628,878.374L580.628,884.758L578.622,884.758L578.622,872.234L580.628,872.234L580.628,874.815L580.677,874.815C580.962,873.934 581.398,873.247 581.985,872.754C582.573,872.261 583.229,872.014 583.955,872.014C584.476,872.014 584.876,872.071 585.153,872.185L585.153,874.264Z" style="fill:rgb(152,16,250);fill-rule:nonzero;"/>
                    <path d="M598.019,884.758L596.014,884.758L596.014,882.63L595.965,882.63C595.035,884.244 593.6,885.051 591.66,885.051C590.086,885.051 588.828,884.491 587.887,883.37C586.945,882.249 586.474,880.722 586.474,878.789C586.474,876.718 586.996,875.059 588.039,873.812C589.083,872.564 590.473,871.941 592.21,871.941C593.93,871.941 595.182,872.617 595.965,873.971L596.014,873.971L596.014,866.217L598.019,866.217L598.019,884.758ZM596.014,879.095L596.014,877.248C596.014,876.237 595.679,875.381 595.011,874.68C594.342,873.979 593.494,873.628 592.467,873.628C591.244,873.628 590.282,874.077 589.58,874.974C588.879,875.87 588.529,877.11 588.529,878.692C588.529,880.135 588.865,881.274 589.538,882.11C590.21,882.946 591.113,883.364 592.247,883.364C593.364,883.364 594.271,882.96 594.968,882.153C595.665,881.346 596.014,880.326 596.014,879.095Z" style="fill:rgb(152,16,250);fill-rule:nonzero;"/>
                    <path d="M621.147,884.024C619.85,884.709 618.236,885.051 616.303,885.051C613.808,885.051 611.811,884.248 610.311,882.642C608.81,881.036 608.06,878.928 608.06,876.319C608.06,873.514 608.904,871.247 610.592,869.519C612.28,867.79 614.42,866.926 617.013,866.926C618.676,866.926 620.054,867.167 621.147,867.648L621.147,869.837C619.891,869.136 618.505,868.785 616.988,868.785C614.974,868.785 613.342,869.458 612.09,870.803C610.839,872.148 610.213,873.946 610.213,876.197C610.213,878.333 610.798,880.035 611.968,881.303C613.138,882.571 614.673,883.205 616.572,883.205C618.334,883.205 619.858,882.813 621.147,882.03L621.147,884.024Z" style="fill:rgb(152,16,250);fill-rule:nonzero;"/>
                    <path d="M629.683,885.051C627.832,885.051 626.355,884.466 625.25,883.296C624.145,882.126 623.593,880.575 623.593,878.643C623.593,876.539 624.167,874.896 625.317,873.714C626.467,872.532 628.02,871.941 629.977,871.941C631.844,871.941 633.301,872.515 634.349,873.665C635.397,874.815 635.921,876.409 635.921,878.447C635.921,880.445 635.356,882.045 634.227,883.247C633.097,884.45 631.583,885.051 629.683,885.051ZM629.83,873.628C628.542,873.628 627.523,874.067 626.772,874.943C626.022,875.82 625.647,877.028 625.647,878.569C625.647,880.053 626.026,881.223 626.785,882.079C627.543,882.935 628.558,883.364 629.83,883.364C631.126,883.364 632.123,882.944 632.82,882.104C633.517,881.264 633.866,880.07 633.866,878.52C633.866,876.955 633.517,875.748 632.82,874.9C632.123,874.052 631.126,873.628 629.83,873.628Z" style="fill:rgb(152,16,250);fill-rule:nonzero;"/>
                    <path d="M656.908,884.758L654.902,884.758L654.902,877.566C654.902,876.18 654.688,875.177 654.26,874.558C653.832,873.938 653.112,873.628 652.101,873.628C651.245,873.628 650.517,874.02 649.918,874.802C649.319,875.585 649.019,876.523 649.019,877.615L649.019,884.758L647.013,884.758L647.013,877.322C647.013,874.859 646.063,873.628 644.164,873.628C643.283,873.628 642.557,873.997 641.987,874.735C641.416,875.473 641.131,876.433 641.131,877.615L641.131,884.758L639.125,884.758L639.125,872.234L641.131,872.234L641.131,874.215L641.18,874.215C642.068,872.699 643.365,871.941 645.069,871.941C645.925,871.941 646.671,872.179 647.307,872.656C647.943,873.133 648.379,873.759 648.616,874.533C649.545,872.805 650.931,871.941 652.774,871.941C655.53,871.941 656.908,873.641 656.908,877.041L656.908,884.758Z" style="fill:rgb(152,16,250);fill-rule:nonzero;"/>
                    <path d="M678.482,884.758L676.476,884.758L676.476,877.566C676.476,876.18 676.262,875.177 675.834,874.558C675.406,873.938 674.686,873.628 673.675,873.628C672.819,873.628 672.091,874.02 671.492,874.802C670.893,875.585 670.593,876.523 670.593,877.615L670.593,884.758L668.587,884.758L668.587,877.322C668.587,874.859 667.638,873.628 665.738,873.628C664.857,873.628 664.132,873.997 663.561,874.735C662.99,875.473 662.705,876.433 662.705,877.615L662.705,884.758L660.699,884.758L660.699,872.234L662.705,872.234L662.705,874.215L662.754,874.215C663.642,872.699 664.939,871.941 666.643,871.941C667.499,871.941 668.245,872.179 668.881,872.656C669.517,873.133 669.953,873.759 670.19,874.533C671.119,872.805 672.505,871.941 674.348,871.941C677.104,871.941 678.482,873.641 678.482,877.041L678.482,884.758Z" style="fill:rgb(152,16,250);fill-rule:nonzero;"/>
                    <path d="M692.4,884.758L690.394,884.758L690.394,882.776L690.345,882.776C689.513,884.293 688.225,885.051 686.48,885.051C683.496,885.051 682.004,883.274 682.004,879.719L682.004,872.234L683.997,872.234L683.997,879.401C683.997,882.043 685.008,883.364 687.03,883.364C688.009,883.364 688.814,883.003 689.446,882.281C690.078,881.56 690.394,880.616 690.394,879.45L690.394,872.234L692.4,872.234L692.4,884.758Z" style="fill:rgb(152,16,250);fill-rule:nonzero;"/>
                    <path d="M706.843,884.758L704.838,884.758L704.838,877.615C704.838,874.957 703.867,873.628 701.927,873.628C700.924,873.628 700.094,874.005 699.438,874.76C698.782,875.514 698.453,876.466 698.453,877.615L698.453,884.758L696.448,884.758L696.448,872.234L698.453,872.234L698.453,874.313L698.502,874.313C699.448,872.731 700.818,871.941 702.612,871.941C703.982,871.941 705.029,872.383 705.755,873.268C706.481,874.152 706.843,875.43 706.843,877.102L706.843,884.758Z" style="fill:rgb(152,16,250);fill-rule:nonzero;"/>
                    <path d="M711.65,869.054C711.291,869.054 710.985,868.932 710.733,868.687C710.48,868.443 710.353,868.133 710.353,867.758C710.353,867.383 710.48,867.071 710.733,866.822C710.985,866.574 711.291,866.449 711.65,866.449C712.017,866.449 712.329,866.574 712.585,866.822C712.842,867.071 712.971,867.383 712.971,867.758C712.971,868.117 712.842,868.422 712.585,868.675C712.329,868.928 712.017,869.054 711.65,869.054ZM712.628,884.758L710.623,884.758L710.623,872.234L712.628,872.234L712.628,884.758Z" style="fill:rgb(152,16,250);fill-rule:nonzero;"/>
                    <path d="M722.498,884.635C722.025,884.896 721.401,885.027 720.627,885.027C718.434,885.027 717.337,883.804 717.337,881.358L717.337,873.946L715.184,873.946L715.184,872.234L717.337,872.234L717.337,869.177L719.343,868.528L719.343,872.234L722.498,872.234L722.498,873.946L719.343,873.946L719.343,881.003C719.343,881.843 719.485,882.442 719.771,882.801C720.056,883.16 720.529,883.339 721.189,883.339C721.695,883.339 722.131,883.2 722.498,882.923L722.498,884.635Z" style="fill:rgb(152,16,250);fill-rule:nonzero;"/>
                    <path d="M735.144,872.234L729.384,886.764C728.356,889.356 726.913,890.653 725.054,890.653C724.532,890.653 724.096,890.6 723.745,890.494L723.745,888.696C724.178,888.843 724.573,888.916 724.932,888.916C725.943,888.916 726.701,888.313 727.207,887.106L728.21,884.733L723.317,872.234L725.543,872.234L728.931,881.871C728.972,881.994 729.057,882.312 729.188,882.825L729.261,882.825C729.302,882.63 729.384,882.32 729.506,881.896L733.065,872.234L735.144,872.234Z" style="fill:rgb(152,16,250);fill-rule:nonzero;"/>
                </g>
                <g transform="matrix(0.061268,0,0,0.061268,410.886,958.432)">
                    <path d="M524.531,69.836C524.368,69.519 524.097,69.271 523.767,69.136C485.644,51.645 445.413,39.172 404.081,32.03C403.313,31.887 402.535,32.255 402.158,32.94C396.68,42.883 391.707,53.096 387.258,63.54C342.705,56.777 297.385,56.777 252.832,63.54C248.354,53.069 243.301,42.854 237.697,32.94C237.304,32.272 236.539,31.909 235.773,32.03C194.437,39.157 154.203,51.631 116.085,69.137C115.759,69.275 115.483,69.512 115.297,69.813C39.068,183.651 18.186,294.69 28.43,404.354C28.488,404.897 28.764,405.393 29.195,405.729C73.582,438.594 123.231,463.681 176.02,479.918C176.78,480.146 177.606,479.875 178.083,479.242C189.421,463.815 199.467,447.479 208.12,430.4C208.252,430.139 208.321,429.851 208.321,429.559C208.321,428.78 207.832,428.08 207.101,427.812C191.259,421.75 175.921,414.443 161.233,405.959C160.658,405.621 160.303,405.001 160.303,404.334C160.303,403.745 160.579,403.189 161.048,402.833C164.13,400.524 167.214,398.122 170.157,395.696C170.689,395.257 171.427,395.158 172.057,395.44C268.286,439.357 372.467,439.357 467.557,395.44C468.188,395.14 468.939,395.231 469.481,395.673C472.425,398.099 475.508,400.524 478.613,402.833C479.088,403.188 479.369,403.748 479.369,404.342C479.369,405.004 479.019,405.619 478.451,405.959C463.796,414.515 448.445,421.817 432.561,427.789C431.835,428.065 431.353,428.765 431.353,429.541C431.353,429.84 431.424,430.134 431.561,430.4C440.358,447.384 450.39,463.699 461.575,479.215C462.039,479.866 462.873,480.149 463.638,479.915C516.522,463.733 566.258,438.644 610.7,405.729C611.138,405.41 611.417,404.917 611.465,404.377C623.729,277.594 590.933,167.465 524.531,69.836ZM222.491,337.58C193.519,337.58 169.647,310.993 169.647,278.341C169.647,245.689 193.056,219.1 222.491,219.1C252.156,219.1 275.797,245.92 275.334,278.339C275.334,310.993 251.924,337.58 222.491,337.58ZM417.871,337.58C388.9,337.58 365.028,310.993 365.028,278.341C365.028,245.689 388.437,219.1 417.871,219.1C447.538,219.1 471.178,245.92 470.715,278.339C470.715,310.993 447.538,337.58 417.871,337.58Z" style="fill:rgb(152,16,250);fill-rule:nonzero;"/>
                </g>
            </g>
        </g>
    </g>
    <defs>
        <linearGradient id="_Linear1" x1="0" y1="0" x2="1" y2="0" gradientUnits="userSpaceOnUse" gradientTransform="matrix(403.804,0,0,71.404,392.327,877.512)"><stop offset="0" style="stop-color:rgb(224,236,253);stop-opacity:1"/><stop offset="1" style="stop-color:rgb(243,233,254);stop-opacity:1"/></linearGradient>
    </defs>
</svg>
