<?xml version="1.0" encoding="UTF-8" standalone="no"?>
<!DOCTYPE svg PUBLIC "-//W3C//DTD SVG 1.1//EN" "http://www.w3.org/Graphics/SVG/1.1/DTD/svg11.dtd">
<svg width="100%" height="100%" viewBox="0 0 341 72" version="1.1" xmlns="http://www.w3.org/2000/svg" xmlns:xlink="http://www.w3.org/1999/xlink" xml:space="preserve" xmlns:serif="http://www.serif.com/" style="fill-rule:evenodd;clip-rule:evenodd;stroke-linejoin:round;stroke-miterlimit:2;">
    <g transform="matrix(1,0,0,1,-477.764,-1226.34)">
        <g transform="matrix(1,0,0,1,0,-292.077)">
            <g id="MidLeft-B" serif:id="MidLeft B">
                <g id="MidLeft-B1" serif:id="MidLeft B" transform="matrix(-0.234403,-6.89496e-17,8.84105e-18,-0.0421363,891.324,1594.85)">
                    <rect x="310.428" y="128.441" width="1453.88" height="1685.33" style="fill:rgb(238,243,253);"/>
                </g>
                <g id="Download" transform="matrix(1,0,0,1,88.4326,675.163)">
                    <g transform="matrix(0.843878,0,0,0.990196,58.2554,10.0031)">
                        <path d="M796.131,877.512C796.131,897.217 777.36,913.214 754.239,913.214L434.219,913.214C411.098,913.214 392.327,897.217 392.327,877.512C392.327,857.808 411.098,841.81 434.219,841.81L754.239,841.81C777.36,841.81 796.131,857.808 796.131,877.512Z" style="fill:url(#_Linear1);"/>
                    </g>
                    <g transform="matrix(1.32918,0,0,1.32918,-146.235,-283.864)">
                        <g transform="matrix(25.0474,0,0,25.0474,627.726,884.758)">
                        </g>
                        <text x="465.371px" y="884.758px" style="font-family:'SegoeUI-Bold', 'Segoe UI', sans-serif;font-weight:700;font-size:25.047px;fill:white;">Get extension</text>
                    </g>
                    <g transform="matrix(0.0604921,0,0,0.0604921,415.43,863.014)">
                        <path d="M288,32C288,14.3 273.7,0 256,0C238.3,0 224,14.3 224,32L224,274.7L150.6,201.3C138.1,188.8 117.8,188.8 105.3,201.3C92.8,213.8 92.8,234.1 105.3,246.6L233.3,374.6C245.8,387.1 266.1,387.1 278.6,374.6L406.6,246.6C419.1,234.1 419.1,213.8 406.6,201.3C394.1,188.8 373.8,188.8 361.3,201.3L288,274.7L288,32ZM64,352C28.7,352 0,380.7 0,416L0,448C0,483.3 28.7,512 64,512L448,512C483.3,512 512,483.3 512,448L512,416C512,380.7 483.3,352 448,352L346.5,352L301.2,397.3C276.2,422.3 235.7,422.3 210.7,397.3L165.5,352L64,352ZM432,408C445.166,408 456,418.834 456,432C456,445.166 445.166,456 432,456C418.834,456 408,445.166 408,432C408,418.834 418.834,408 432,408Z" style="fill:white;fill-rule:nonzero;"/>
                    </g>
                </g>
            </g>
        </g>
    </g>
    <defs>
        <linearGradient id="_Linear1" x1="0" y1="0" x2="1" y2="0" gradientUnits="userSpaceOnUse" gradientTransform="matrix(403.804,0,0,71.404,392.327,877.512)"><stop offset="0" style="stop-color:rgb(23,93,252);stop-opacity:1"/><stop offset="1" style="stop-color:rgb(152,19,250);stop-opacity:1"/></linearGradient>
    </defs>
</svg>
