<?xml version="1.0" encoding="UTF-8" standalone="no"?>
<!DOCTYPE svg PUBLIC "-//W3C//DTD SVG 1.1//EN" "http://www.w3.org/Graphics/SVG/1.1/DTD/svg11.dtd">
<svg width="100%" height="100%" viewBox="0 0 1686 1227" version="1.1" xmlns="http://www.w3.org/2000/svg" xmlns:xlink="http://www.w3.org/1999/xlink" xml:space="preserve" xmlns:serif="http://www.serif.com/" style="fill-rule:evenodd;clip-rule:evenodd;stroke-linejoin:round;stroke-miterlimit:2;">
    <g transform="matrix(1,0,0,1,0,-292.077)">
        <g id="Top-Left" serif:id="Top Left">
            <g id="Top-Left1" serif:id="Top Left" transform="matrix(1.15919,0,0,0.72766,-359.846,198.615)">
                <rect x="310.428" y="128.441" width="1453.88" height="1685.33" style="fill:rgb(238,243,253);"/>
            </g>
            <g id="Main-texts" serif:id="Main texts" transform="matrix(1,0,0,1,88.4326,-65.2765)">
                <g transform="matrix(0.139865,0,0,0.139865,333.499,1123.1)">
                    <text x="392.327px" y="1551.94px" style="font-family:'SegoeUI', 'Segoe UI', sans-serif;font-size:342.718px;fill:rgb(69,85,108);">T<tspan x="542.099px 661.247px " y="1551.94px 1551.94px ">ra</tspan>nsform<tspan x="1897.41px " y="1551.94px "> </tspan>yo<tspan x="2357.94px " y="1551.94px ">u</tspan>r Gaia Online experience with powe<tspan x="7898.83px 8017.98px 8125.25px " y="1551.94px 1551.94px 1551.94px ">rfu</tspan>l</text>
                    <text x="392.327px" y="2117.97px" style="font-family:'SegoeUI', 'Segoe UI', sans-serif;font-size:342.718px;fill:rgb(69,85,108);">feature<tspan x="1461.65px " y="2117.97px ">s</tspan>, enhanced perf<tspan x="3951.04px " y="2117.97px ">o</tspan>rm<tspan x="4566.2px " y="2117.97px ">a</tspan>nce, and quality-of<tspan x="7567.49px 7704.55px " y="2117.97px 2117.97px ">-l</tspan>ife</text>
                    <g transform="matrix(342.718,0,0,342.718,6942.63,2683.99)">
                    </g>
                    <text x="392.327px" y="2683.99px" style="font-family:'SegoeUI', 'Segoe UI', sans-serif;font-size:342.718px;fill:rgb(69,85,108);">impro<tspan x="1291.96px 1456.13px 1635.35px " y="2683.99px 2683.99px 2683.99px ">vem</tspan>ents that make<tspan x="4172.77px " y="2683.99px "> </tspan>eve<tspan x="4789.26px 4908.41px 5074.25px 5190.39px " y="2683.99px 2683.99px 2683.99px 2683.99px ">ryth</tspan>ing bette<tspan x="6749.19px " y="2683.99px ">r</tspan>.</text>
                </g>
                <g transform="matrix(0.256753,0,0,0.256753,292.133,739.241)">
                    <g transform="matrix(536.709,0,0,536.709,3670.34,1431.48)">
                    </g>
                    <text x="380.372px" y="1431.48px" style="font-family:'SegoeUI-Bold', 'Segoe UI', sans-serif;font-weight:700;font-size:536.709px;fill:url(#_Linear1);">GaiaUpgrade</text>
                </g>
                <g transform="matrix(0.794189,0,0,0.794189,78.7384,240.672)">
                    <g transform="matrix(114.991,0,0,114.991,959.759,1235.17)">
                    </g>
                    <text x="392.327px" y="1235.17px" style="font-family:'SegoeUI-Bold', 'Segoe UI', sans-serif;font-weight:700;font-size:114.991px;fill:rgb(21,93,252);">for Fir<tspan x="721.972px 784.184px 828.26px 896.255px " y="1235.17px 1235.17px 1235.17px 1235.17px ">efox</tspan></text>
                </g>
                <g id="Trusted">
                    <g transform="matrix(1.00742,0,0,0.990196,-5.90587,10.0031)">
                        <path d="M796.131,877.512C796.131,897.217 780.407,913.214 761.039,913.214L427.419,913.214C408.051,913.214 392.327,897.217 392.327,877.512C392.327,857.808 408.051,841.81 427.419,841.81L761.039,841.81C780.407,841.81 796.131,857.808 796.131,877.512Z" style="fill:url(#_Linear2);"/>
                    </g>
                    <g transform="matrix(1.10924,0,0,1.10924,-47.8136,-91.2688)">
                        <g transform="matrix(25.0474,0,0,25.0474,730.435,884.758)">
                        </g>
                        <text x="465.371px" y="884.758px" style="font-family:'SegoeUI', 'Segoe UI', sans-serif;font-size:25.047px;fill:rgb(21,93,252);">T<tspan x="476.317px 485.025px " y="884.758px 884.758px ">ru</tspan>ste<tspan x="531.414px " y="884.758px ">d</tspan> by 5,000+ Users</text>
                    </g>
                    <g transform="matrix(0.0490902,0,0,0.0490902,422.984,866.344)">
                        <path d="M316.9,18C311.6,7 300.4,0 288.1,0C275.8,0 264.7,7 259.3,18L195,150.3L51.4,171.5C39.4,173.3 29.4,181.7 25.7,193.2C22,204.7 25,217.4 33.6,225.9L137.8,329L113.2,474.7C111.2,486.7 116.2,498.9 126.1,506C136,513.1 149.1,514 159.9,508.3L288.2,439.8L416.5,508.3C427.3,514 440.4,513.2 450.3,506C460.2,498.8 465.2,486.7 463.2,474.7L438.5,329L542.7,225.9C551.3,217.4 554.4,204.7 550.6,193.2C546.8,181.7 536.9,173.3 524.9,171.5L381.2,150.3L316.9,18Z" style="fill:rgb(21,93,252);fill-rule:nonzero;"/>
                    </g>
                </g>
            </g>
        </g>
    </g>
    <defs>
        <linearGradient id="_Linear1" x1="0" y1="0" x2="1" y2="0" gradientUnits="userSpaceOnUse" gradientTransform="matrix(3256.16,0,0,523.344,399.765,1295.86)"><stop offset="0" style="stop-color:rgb(16,25,45);stop-opacity:1"/><stop offset="1" style="stop-color:rgb(69,85,108);stop-opacity:1"/></linearGradient>
        <linearGradient id="_Linear2" x1="0" y1="0" x2="1" y2="0" gradientUnits="userSpaceOnUse" gradientTransform="matrix(403.804,0,0,71.404,392.327,877.512)"><stop offset="0" style="stop-color:rgb(219,234,253);stop-opacity:1"/><stop offset="1" style="stop-color:rgb(242,233,254);stop-opacity:1"/></linearGradient>
    </defs>
</svg>
