<?xml version="1.0" encoding="UTF-8" standalone="no"?>
<!DOCTYPE svg PUBLIC "-//W3C//DTD SVG 1.1//EN" "http://www.w3.org/Graphics/SVG/1.1/DTD/svg11.dtd">
<svg width="100%" height="100%" viewBox="0 0 3300 2929" version="1.1" xmlns="http://www.w3.org/2000/svg" xmlns:xlink="http://www.w3.org/1999/xlink" xml:space="preserve" xmlns:serif="http://www.serif.com/" style="fill-rule:evenodd;clip-rule:evenodd;stroke-linecap:round;stroke-linejoin:round;stroke-miterlimit:1.5;">
    <g transform="matrix(1,0,0,1,0,-4784.23)">
        <g id="Page-3" serif:id="Page 3" transform="matrix(1,0,0,1,0,4484.79)">
            <g id="Background" transform="matrix(1,0,0,1.21457,0,299.443)">
                <rect x="0" y="0" width="3300" height="2410.77" style="fill:rgb(241,245,251);"/>
            </g>
            <g id="Main-texts" serif:id="Main texts" transform="matrix(1,0,0,1,548.327,-65.2765)">
                <g transform="matrix(0.218149,0,0,0.218149,418.677,541.257)">
                    <g transform="matrix(536.709,0,0,536.709,5886.1,1431.48)">
                    </g>
                    <text x="380.372px" y="1431.48px" style="font-family:'SegoeUI-Bold', 'Segoe UI', sans-serif;font-weight:700;font-size:536.709px;fill:url(#_Linear1);">T<tspan x="654.492px 869.648px 1194.35px 1430.47px 1637.24px 1927.6px " y="1431.48px 1431.48px 1431.48px 1431.48px 1431.48px 1431.48px ">rusted</tspan> by Thousands</text>
                </g>
                <g transform="matrix(0.794189,0,0,0.794189,429.38,-4.84334)">
                    <g transform="matrix(147.425,0,0,147.425,1299.05,1235.17)">
                    </g>
                    <text x="392.327px" y="1235.17px" style="font-family:'SegoeUI-Bold', 'Segoe UI', sans-serif;font-weight:700;font-size:147.425px;fill:rgb(21,93,252);">o<tspan x="480.22px 536.729px " y="1235.17px 1235.17px ">f </tspan>Gaia User<tspan x="1234.19px " y="1235.17px ">s</tspan></text>
                </g>
                <g id="Main-Attribute" serif:id="Main Attribute" transform="matrix(1,0,0,1,508.991,-218.325)">
                    <g transform="matrix(0.968823,0,0,0.990196,16.9804,10.0031)">
                        <path d="M796.131,877.512C796.131,897.217 779.781,913.214 759.642,913.214L428.817,913.214C408.677,913.214 392.327,897.217 392.327,877.512C392.327,857.808 408.677,841.81 428.817,841.81L759.642,841.81C779.781,841.81 796.131,857.808 796.131,877.512Z" style="fill:url(#_Linear2);"/>
                    </g>
                    <g transform="matrix(1.10924,0,0,1.10924,-39.6246,-91.2688)">
                        <g transform="matrix(25.0474,0,0,25.0474,709.424,884.758)">
                        </g>
                        <text x="465.371px" y="884.758px" style="font-family:'SegoeUI', 'Segoe UI', sans-serif;font-size:25.047px;fill:rgb(0,166,62);">Community Appro<tspan x="669.578px 681.576px 694.674px " y="884.758px 884.758px 884.758px ">ved</tspan></text>
                    </g>
                    <g transform="matrix(0.0542962,0,0,0.0542962,433.615,864.732)">
                        <path d="M438.6,105.4C451.1,117.9 451.1,138.2 438.6,150.7L182.6,406.7C170.1,419.2 149.8,419.2 137.3,406.7L9.3,278.7C-3.2,266.2 -3.2,245.9 9.3,233.4C21.8,220.9 42.1,220.9 54.6,233.4L160,338.7L393.4,105.4C405.9,92.9 426.2,92.9 438.7,105.4L438.6,105.4Z" style="fill:rgb(16,172,74);fill-rule:nonzero;"/>
                    </g>
                </g>
                <g transform="matrix(1,0,0,1,-1151.09,-1797.09)">
                    <text x="1491.26px" y="2885.62px" style="font-family:'SegoeUI', 'Segoe UI', sans-serif;font-size:40.417px;fill:rgb(49,62,84);">T<tspan x="1508.92px 1522.97px " y="2885.62px 2885.62px ">ru</tspan>ste<tspan x="1597.83px " y="2885.62px ">d</tspan> by users<tspan x="1779.45px " y="2885.62px "> </tspan>and re<tspan x="1904.01px " y="2885.62px ">c</tspan>ognized by Gaia Online — Our bro<tspan x="2540.65px " y="2885.62px ">w</tspan>ser exte<tspan x="2707.79px " y="2885.62px ">n</tspan>sions have<tspan x="2916.3px " y="2885.62px "> </tspan>been</text>
                    <g transform="matrix(40.4167,0,0,40.4167,2671.73,2952.29)">
                    </g>
                    <text x="1846.88px" y="2952.29px" style="font-family:'SegoeUI', 'Segoe UI', sans-serif;font-size:40.417px;fill:rgb(49,62,84);">empowe<tspan x="2000.61px " y="2952.29px ">r</tspan>ing the community for ove<tspan x="2488.43px " y="2952.29px ">r</tspan> 18 ye<tspan x="2608.89px " y="2952.29px ">a</tspan>rs</text>
                </g>
            </g>
            <g id="Stats" transform="matrix(1,0,0,1,7.5399,-1.44061)">
                <g id="Feature-Card-A" serif:id="Feature Card A" transform="matrix(1,0,0,1,267.258,-546.723)">
                    <g id="Background1" serif:id="Background" transform="matrix(0.644399,0,0,0.701182,-124.856,-612.641)">
                        <path d="M1616.37,3490.59L1616.37,3946.16C1616.37,3963.31 1601.22,3977.22 1582.57,3977.22L447.87,3977.22C429.216,3977.22 414.071,3963.31 414.071,3946.16L414.071,3490.59C414.071,3473.45 429.216,3459.53 447.87,3459.53L1582.57,3459.53C1601.22,3459.53 1616.37,3473.45 1616.37,3490.59Z" style="fill:white;stroke:rgb(226,232,240);stroke-width:5.76px;"/>
                    </g>
                    <g id="Icon-Background" serif:id="Icon Background" transform="matrix(0.876371,0,0,1.12191,67.0328,-2108.55)">
                        <path d="M582.397,3570.06L582.397,3598.79C582.397,3614.56 566.009,3627.36 545.823,3627.36L509.249,3627.36C489.063,3627.36 472.675,3614.56 472.675,3598.79L472.675,3570.06C472.675,3554.29 489.063,3541.49 509.249,3541.49L545.823,3541.49C566.009,3541.49 582.397,3554.29 582.397,3570.06Z" style="fill:url(#_Linear3);"/>
                    </g>
                    <g transform="matrix(0.0550053,0,0,0.0550053,511.748,1898.79)">
                        <path d="M144,0C187.887,-0 224,36.113 224,80C224,123.887 187.887,160 144,160C100.113,160 64,123.887 64,80C64,36.113 100.113,0 144,0ZM512,0C555.887,-0 592,36.113 592,80C592,123.887 555.887,160 512,160C468.113,160 432,123.887 432,80C432,36.113 468.113,0 512,0ZM0,298.7C0,239.8 47.8,192 106.7,192L149.4,192C165.3,192 180.4,195.5 194,201.7C192.7,208.9 192.1,216.4 192.1,224C192.1,262.2 208.9,296.5 235.4,320L21.3,320C9.6,320 0,310.4 0,298.7ZM618.7,320L404.6,320C431.2,296.5 447.9,262.2 447.9,224C447.9,216.4 447.2,209 446,201.7C459.6,195.4 474.7,192 490.6,192L533.3,192C592.2,192 640,239.8 640,298.7C640,310.5 630.4,320 618.7,320ZM224,224C224,171.336 267.336,128 320,128C372.664,128 416,171.336 416,224C416,276.664 372.664,320 320,320C267.336,320 224,276.664 224,224ZM128,485.3C128,411.7 187.7,352 261.3,352L378.6,352C452.3,352 512,411.7 512,485.3C512,500 500.1,512 485.3,512L154.6,512C139.9,512 127.9,500.1 127.9,485.3L128,485.3Z" style="fill:rgb(21,93,252);fill-rule:nonzero;"/>
                    </g>
                    <g transform="matrix(1.11822,0,0,1.11822,-258.669,-1949.52)">
                        <g transform="matrix(54.1667,0,0,54.1667,794.752,3581.04)">
                        </g>
                        <text x="617.15px" y="3581.04px" style="font-family:'SegoeUI-Bold', 'Segoe UI', sans-serif;font-weight:700;font-size:54.167px;fill:rgb(50,63,85);">5,000+</text>
                    </g>
                    <g transform="matrix(1,0,0,1,-28.6589,-1596.02)">
                        <g transform="matrix(28.3333,0,0,28.3333,634.528,3710.48)">
                        </g>
                        <text x="482.375px" y="3710.48px" style="font-family:'SegoeUI', 'Segoe UI', sans-serif;font-size:28.333px;fill:rgb(60,74,97);">Active<tspan x="558.59px " y="3710.48px "> </tspan>Users</text>
                    </g>
                </g>
                <g id="Feature-Card-A1" serif:id="Feature Card A" transform="matrix(1,0,0,1,1113.11,-546.723)">
                    <g id="Background2" serif:id="Background" transform="matrix(0.644399,0,0,0.701182,-124.856,-612.641)">
                        <path d="M1616.37,3490.59L1616.37,3946.16C1616.37,3963.31 1601.22,3977.22 1582.57,3977.22L447.87,3977.22C429.216,3977.22 414.071,3963.31 414.071,3946.16L414.071,3490.59C414.071,3473.45 429.216,3459.53 447.87,3459.53L1582.57,3459.53C1601.22,3459.53 1616.37,3473.45 1616.37,3490.59Z" style="fill:white;stroke:rgb(226,232,240);stroke-width:5.76px;"/>
                    </g>
                    <g id="Icon-Background1" serif:id="Icon Background" transform="matrix(0.876371,0,0,1.12191,67.0328,-2108.55)">
                        <path d="M582.397,3570.06L582.397,3598.79C582.397,3614.56 566.009,3627.36 545.823,3627.36L509.249,3627.36C489.063,3627.36 472.675,3614.56 472.675,3598.79L472.675,3570.06C472.675,3554.29 489.063,3541.49 509.249,3541.49L545.823,3541.49C566.009,3541.49 582.397,3554.29 582.397,3570.06Z" style="fill:url(#_Linear4);"/>
                    </g>
                    <g transform="matrix(0.0638836,0,0,0.0638836,510.94,1896.51)">
                        <path d="M316.9,18C311.6,7 300.4,0 288.1,0C275.8,0 264.7,7 259.3,18L195,150.3L51.4,171.5C39.4,173.3 29.4,181.7 25.7,193.2C22,204.7 25,217.4 33.6,225.9L137.8,329L113.2,474.7C111.2,486.7 116.2,498.9 126.1,506C136,513.1 149.1,514 159.9,508.3L288.2,439.8L416.5,508.3C427.3,514 440.4,513.2 450.3,506C460.2,498.8 465.2,486.7 463.2,474.7L438.5,329L542.7,225.9C551.3,217.4 554.4,204.7 550.6,193.2C546.8,181.7 536.9,173.3 524.9,171.5L381.2,150.3L316.9,18Z" style="fill:rgb(225,113,0);fill-rule:nonzero;"/>
                    </g>
                    <g transform="matrix(1.11822,0,0,1.11822,-258.669,-1949.52)">
                        <g transform="matrix(54.1667,0,0,54.1667,744.447,3581.04)">
                        </g>
                        <text x="667.455px" y="3581.04px" style="font-family:'SegoeUI-Bold', 'Segoe UI', sans-serif;font-weight:700;font-size:54.167px;fill:rgb(50,63,85);">4.3</text>
                    </g>
                    <g transform="matrix(1,0,0,1,-28.6589,-1596.02)">
                        <g transform="matrix(28.3333,0,0,28.3333,653.544,3710.48)">
                        </g>
                        <text x="463.359px" y="3710.48px" style="font-family:'SegoeUI', 'Segoe UI', sans-serif;font-size:28.333px;fill:rgb(60,74,97);">A<tspan x="481.081px 494.653px 509.47px " y="3710.48px 3710.48px 3710.48px ">ver</tspan>age Rating</text>
                    </g>
                </g>
                <g id="Feature-Card-A2" serif:id="Feature Card A" transform="matrix(1,0,0,1,1958.96,-546.723)">
                    <g id="Background3" serif:id="Background" transform="matrix(0.644399,0,0,0.701182,-124.856,-612.641)">
                        <path d="M1616.37,3490.59L1616.37,3946.16C1616.37,3963.31 1601.22,3977.22 1582.57,3977.22L447.87,3977.22C429.216,3977.22 414.071,3963.31 414.071,3946.16L414.071,3490.59C414.071,3473.45 429.216,3459.53 447.87,3459.53L1582.57,3459.53C1601.22,3459.53 1616.37,3473.45 1616.37,3490.59Z" style="fill:white;stroke:rgb(226,232,240);stroke-width:5.76px;"/>
                    </g>
                    <g id="Icon-Background2" serif:id="Icon Background" transform="matrix(0.876371,0,0,1.12191,67.0328,-2108.55)">
                        <path d="M582.397,3570.06L582.397,3598.79C582.397,3614.56 566.009,3627.36 545.823,3627.36L509.249,3627.36C489.063,3627.36 472.675,3614.56 472.675,3598.79L472.675,3570.06C472.675,3554.29 489.063,3541.49 509.249,3541.49L545.823,3541.49C566.009,3541.49 582.397,3554.29 582.397,3570.06Z" style="fill:url(#_Linear5);"/>
                    </g>
                    <g transform="matrix(0.0542962,0,0,0.0542962,517.19,1898.97)">
                        <path d="M438.6,105.4C451.1,117.9 451.1,138.2 438.6,150.7L182.6,406.7C170.1,419.2 149.8,419.2 137.3,406.7L9.3,278.7C-3.2,266.2 -3.2,245.9 9.3,233.4C21.8,220.9 42.1,220.9 54.6,233.4L160,338.7L393.4,105.4C405.9,92.9 426.2,92.9 438.7,105.4L438.6,105.4Z" style="fill:rgb(0,153,102);fill-rule:nonzero;"/>
                    </g>
                    <g transform="matrix(1.11822,0,0,1.11822,-258.669,-1949.52)">
                        <g transform="matrix(54.1667,0,0,54.1667,756.256,3581.04)">
                        </g>
                        <text x="655.646px" y="3581.04px" style="font-family:'SegoeUI-Bold', 'Segoe UI', sans-serif;font-weight:700;font-size:54.167px;fill:rgb(50,63,85);">18+</text>
                    </g>
                    <g transform="matrix(1,0,0,1,-28.6589,-1596.02)">
                        <g transform="matrix(28.3333,0,0,28.3333,640.166,3710.48)">
                        </g>
                        <text x="476.737px" y="3710.48px" style="font-family:'SegoeUI', 'Segoe UI', sans-serif;font-size:28.333px;fill:rgb(60,74,97);">Y<tspan x="489.908px 504.725px " y="3710.48px 3710.48px ">ea</tspan>rs<tspan x="541.013px 548.774px 561.156px 571.006px " y="3710.48px 3710.48px 3710.48px 3710.48px "> Tru</tspan>ste<tspan x="623.481px " y="3710.48px ">d</tspan></text>
                    </g>
                </g>
            </g>
            <g id="Tweet" transform="matrix(1,0,0,1,-0.437524,0)">
                <g transform="matrix(1.04117,0,0,0.925757,-46.0548,-4035.9)">
                    <path d="M2126.53,6334.65L2126.53,7151.77C2126.53,7162.02 2119.13,7170.34 2110.02,7170.34L1148.8,7170.34C1139.69,7170.34 1132.29,7162.02 1132.29,7151.77L1132.29,6334.65C1132.29,6324.4 1139.69,6316.08 1148.8,6316.08L2110.02,6316.08C2119.13,6316.08 2126.53,6324.4 2126.53,6334.65Z" style="fill:white;stroke:rgb(224,231,235);stroke-width:4.06px;"/>
                </g>
                <g transform="matrix(1,0,0,1,2.97067,-4484.63)">
                    <ellipse cx="1212.89" cy="6367.52" rx="47.756" ry="48.88" style="fill:url(#_Linear6);"/>
                </g>
                <g id="Gaia-Logo" serif:id="Gaia Logo" transform="matrix(0.223927,0,0,0.223927,1162.21,1860.5)">
                    <path d="M261.247,134.353C261.247,142.169 266.667,145.813 266.667,145.813C266.667,145.813 236.801,149.534 236.801,126.834L236.801,93.013C236.801,92.988 236.809,92.97 236.809,92.945C236.793,92.656 236.776,92.359 236.776,92.07L236.776,91.976C236.758,84.976 234.584,62.139 206.9,62.131C190.423,62.139 177.025,75.537 177.025,92.01C177.025,108.484 190.423,121.89 206.9,121.89C222.656,121.89 231.245,110.234 232.707,109.104L232.707,126.8C232.707,138.167 220.397,145.389 205.006,145.389C175.054,145.389 152.57,121.958 152.57,92.01C152.57,62.062 176.94,37.697 206.892,37.697L206.9,37.697C239.35,37.697 261.179,59.497 261.213,91.959L261.213,92.129L261.204,92.138C261.231,92.435 261.256,92.715 261.256,93.013L261.256,133.563C261.256,133.632 261.247,133.708 261.247,133.784L261.247,134.353ZM404.986,134.353C404.986,142.169 410.406,145.813 410.406,145.813C410.406,145.813 380.548,149.534 380.548,126.834L380.548,92.945C380.523,92.656 380.506,92.359 380.506,92.07L380.506,91.976C380.497,84.976 378.322,62.139 350.63,62.131C334.162,62.139 320.768,75.537 320.768,92.01C320.768,108.484 334.161,121.89 350.639,121.89C366.395,121.89 374.975,110.234 376.445,109.104L376.445,126.8C376.445,138.167 364.135,145.389 348.745,145.389C318.793,145.389 296.314,121.958 296.314,92.01C296.314,62.062 320.679,37.697 350.63,37.697L350.639,37.697C383.088,37.697 404.918,59.497 404.952,91.959L404.952,92.129L404.943,92.138C404.969,92.435 404.994,92.715 404.994,93.013L404.994,133.563C404.994,133.632 404.986,133.708 404.986,133.784L404.986,134.353ZM265.864,57.942C265.864,50.704 271.739,44.824 278.977,44.824C286.224,44.824 292.094,50.704 292.094,57.942L292.094,133.103C292.094,140.341 286.232,146.212 278.977,146.212C271.739,146.212 265.864,140.341 265.864,133.103L265.864,57.942ZM292.443,26.372C292.443,33.712 286.492,39.65 279.16,39.65C271.807,39.65 265.855,33.712 265.855,26.372C265.855,19.023 271.807,13.076 279.16,13.076C286.492,13.076 292.443,19.023 292.443,26.372ZM148.704,92.384C148.729,92.673 148.746,92.97 148.746,93.275L148.746,133.995C148.746,145.124 142.447,186.923 81.77,186.923C74.99,186.923 69.502,181.435 69.502,174.647C69.502,167.868 74.991,162.371 81.77,162.371C118.917,162.371 124.223,142.229 124.223,127.794L124.198,93.275C124.198,93.25 124.207,93.217 124.207,93.199C124.181,92.91 124.155,92.622 124.155,92.324L124.155,92.23C124.155,85.204 121.96,62.266 94.157,62.266C77.612,62.266 64.141,75.723 64.141,92.264C64.141,108.814 77.612,122.271 94.157,122.271C109.98,122.271 118.603,111.099 120.073,109.961L120.073,128.345C120.073,137.224 108.035,145.881 90.789,145.881C61.976,145.881 39.594,122.348 39.594,92.264C39.594,62.197 64.065,37.713 94.157,37.713C126.738,37.713 148.67,59.616 148.704,92.222L148.704,92.384ZM293.391,170.612C293.391,179.584 287.04,186.677 278.349,186.677C269.607,186.677 263.256,179.583 263.256,170.612C263.256,161.683 269.607,154.59 278.349,154.59C287.04,154.59 293.391,161.684 293.391,170.612ZM287.486,170.612C287.486,164.886 283.412,160.136 278.348,160.136C273.243,160.136 269.164,164.886 269.164,170.612C269.164,176.372 273.242,181.13 278.348,181.13C283.412,181.13 287.486,176.372 287.486,170.612ZM316.826,157.732C318.826,159.738 319.93,162.575 319.93,165.727L319.93,186.142L314.069,186.142L314.069,165.6C314.069,162.313 312.085,160.316 308.755,160.316C305.467,160.316 303.475,162.313 303.475,165.6L303.475,186.143L297.609,186.143L297.609,165.728C297.609,162.576 298.713,159.739 300.714,157.733C302.762,155.695 305.595,154.59 308.755,154.59C311.945,154.59 314.782,155.694 316.826,157.732ZM325.177,176.424L325.177,155.346L331.031,155.346L331.031,176.33C331.031,179.184 332.102,180.374 334.892,180.374L344.169,180.374L344.169,186.143L334.841,186.143C328.55,186.143 325.177,182.328 325.177,176.424ZM353.76,155.337L353.76,186.143L347.898,186.143L347.898,155.337L353.76,155.337ZM378.653,157.732C380.654,159.738 381.758,162.575 381.758,165.727L381.758,186.142L375.896,186.142L375.896,165.6C375.896,162.313 373.913,160.316 370.574,160.316C367.29,160.316 365.298,162.313 365.298,165.6L365.298,186.143L359.437,186.143L359.437,165.728C359.437,162.576 360.541,159.739 362.541,157.733C364.585,155.695 367.422,154.59 370.574,154.59C373.772,154.59 376.61,155.694 378.653,157.732ZM393.083,167.987L405.551,167.987L405.551,173.441L393.083,173.441L393.083,176.423C393.083,179.26 394.196,180.373 396.979,180.373L407.82,180.373L407.82,186.133L396.945,186.133C390.603,186.133 387.217,182.234 387.217,176.329L387.217,165.148C387.217,159.252 390.603,155.344 396.945,155.344L407.82,155.344L407.82,161.104L396.979,161.104C394.197,161.104 393.083,162.174 393.083,165.012L393.083,167.987ZM427.559,155.243L427.559,157.206L424.233,157.206L424.233,166.331L421.905,166.331L421.905,157.206L418.588,157.206L418.588,155.243L427.559,155.243ZM436.259,155.243L439.594,155.243L439.594,166.331L437.427,166.331L437.427,158.829C437.427,158.616 437.436,158.327 437.436,157.929C437.444,157.537 437.444,157.241 437.444,157.028L435.354,166.332L433.103,166.332L431.013,157.028C431.013,157.241 431.013,157.538 431.022,157.929C431.03,158.327 431.03,158.617 431.03,158.829L431.03,166.331L428.877,166.331L428.877,155.243L432.232,155.243L434.258,163.96L436.259,155.243Z" style="fill:url(#_Linear7);"/>
                </g>
                <g transform="matrix(0.551734,0,0,0.551734,571.643,-1641.68)">
                    <g transform="matrix(54.1667,0,0,54.1667,1566.59,6367.97)">
                    </g>
                    <text x="1272.74px" y="6367.97px" style="font-family:'SegoeUI-Bold', 'Segoe UI', sans-serif;font-weight:700;font-size:54.167px;fill:rgb(15,20,25);">Gaia Online</text>
                </g>
                <g transform="matrix(0.717174,0,0,0.830373,406.863,-3407.99)">
                    <path d="M1460.71,6333.59C1461.3,6330.92 1464.26,6328.81 1467.75,6328.81C1471.25,6328.81 1474.2,6330.92 1474.79,6333.59C1477.4,6332.06 1481.21,6332.37 1483.68,6334.5C1486.16,6336.64 1486.52,6339.92 1484.75,6342.17C1487.84,6342.68 1490.28,6345.23 1490.28,6348.24C1490.28,6351.26 1487.84,6353.81 1484.75,6354.32C1486.52,6356.57 1486.16,6359.85 1483.68,6361.99C1481.21,6364.12 1477.4,6364.43 1474.79,6362.9C1474.2,6365.57 1471.25,6367.68 1467.75,6367.68C1464.26,6367.68 1461.3,6365.57 1460.71,6362.9C1458.1,6364.43 1454.29,6364.12 1451.82,6361.99C1449.35,6359.85 1448.98,6356.57 1450.75,6354.32C1447.66,6353.81 1445.22,6351.26 1445.22,6348.24C1445.22,6345.23 1447.66,6342.68 1450.75,6342.17C1448.98,6339.92 1449.35,6336.64 1451.82,6334.5C1454.29,6332.37 1458.1,6332.06 1460.71,6333.59Z" style="fill:rgb(29,155,240);"/>
                </g>
                <g transform="matrix(0.0320879,0,0,0.0320879,1452.31,1855.21)">
                    <path d="M438.6,105.4C451.1,117.9 451.1,138.2 438.6,150.7L182.6,406.7C170.1,419.2 149.8,419.2 137.3,406.7L9.3,278.7C-3.2,266.2 -3.2,245.9 9.3,233.4C21.8,220.9 42.1,220.9 54.6,233.4L160,338.7L393.4,105.4C405.9,92.9 426.2,92.9 438.7,105.4L438.6,105.4Z" style="fill:rgb(254,255,255);fill-rule:nonzero;"/>
                </g>
                <g transform="matrix(0.760601,0,0,0.760601,306.783,-2957.26)">
                    <g transform="matrix(39.2301,0,0,39.2301,1508.15,6407.15)">
                    </g>
                    <text x="1272px" y="6407.15px" style="font-family:'SegoeUI', 'Segoe UI', sans-serif;font-size:39.23px;fill:rgb(83,100,113);">@gaiaonline ·</text>
                </g>
                <g transform="matrix(1,0,0,1,-2.40234,-4484.29)">
                    <g transform="matrix(30,0,0,30,1559.94,6400.33)">
                    </g>
                    <text x="1466.68px" y="6400.32px" style="font-family:'SegoeUI-Bold', 'Segoe UI', sans-serif;font-weight:700;font-size:30px;fill:rgb(0,111,214);">Follow</text>
                </g>
                <g transform="matrix(0.969534,0,0,0.969534,37.4432,-4292.78)">
                    <text x="1164.49px" y="6487.67px" style="font-family:'SegoeUI', 'Segoe UI', sans-serif;font-size:41.667px;fill:rgb(15,20,25);">The GaiaUpgrade bro<tspan x="1558.65px " y="6487.67px ">w</tspan>ser exte<tspan x="1730.95px " y="6487.67px ">n</tspan>sion is a pro<tspan x="1976.91px " y="6487.67px ">d</tspan>uct of</text>
                    <text x="1164.49px" y="6537.67px" style="font-family:'SegoeUI', 'Segoe UI', sans-serif;font-size:41.667px;fill:rgb(15,20,25);">hard<tspan x="1248.29px " y="6537.67px "> </tspan>wo<tspan x="1314.23px " y="6537.67px ">r</tspan>k and love<tspan x="1517.82px " y="6537.67px "> </tspan>fro<tspan x="1581.17px " y="6537.67px ">m</tspan> a small te<tspan x="1803.36px " y="6537.67px ">a</tspan>m of<tspan x="1909.32px " y="6537.67px "> </tspan>dedicate<tspan x="2078.04px " y="6537.67px ">d</tspan></text>
                    <text x="1164.49px" y="6587.67px" style="font-family:'SegoeUI', 'Segoe UI', sans-serif;font-size:41.667px;fill:rgb(15,20,25);">Gaians! Do yo<tspan x="1419.7px " y="6587.67px ">u</tspan> use it?</text>
                    <text x="1164.49px" y="6687.67px" style="font-family:'SegoeUI', 'Segoe UI', sans-serif;font-size:41.667px;fill:rgb(15,20,25);">Visit their thre<tspan x="1423.22px " y="6687.67px ">a</tspan>d to<tspan x="1518.9px " y="6687.67px "> </tspan>check out what the exte<tspan x="1967.98px " y="6687.67px ">n</tspan>sion</text>
                    <g transform="matrix(41.6667,0,0,41.6667,1361.85,6737.67)">
                    </g>
                    <g transform="matrix(41.6667,0,0,41.6667,1374.81,6737.67)">
                    </g>
                    <text x="1164.49px" y="6737.67px" style="font-family:'SegoeUI', 'Segoe UI', sans-serif;font-size:41.667px;fill:rgb(15,20,25);">curre<tspan x="1258.08px " y="6737.67px ">n</tspan>tly oﬀers<tspan x="1441.73px " y="6737.67px ">,</tspan> ask questions, or make<tspan x="1881px " y="6737.67px "> </tspan>any bug</text>
                    <g transform="matrix(41.6667,0,0,41.6667,1621.11,6787.67)">
                    </g>
                    <text x="1164.49px" y="6787.67px" style="font-family:'SegoeUI', 'Segoe UI', sans-serif;font-size:41.667px;fill:rgb(15,20,25);">re<tspan x="1200.76px " y="6787.67px ">p</tspan>ort<tspan x="1278.28px " y="6787.67px ">s</tspan>/feature<tspan x="1442.2px " y="6787.67px "> </tspan>re<tspan x="1489.89px " y="6787.67px ">q</tspan>uests!</text>
                </g>
                <g transform="matrix(0.969534,0,0,0.969534,37.4432,-3952.74)">
                    <g transform="matrix(41.6667,0,0,41.6667,1778.75,6487.67)">
                    </g>
                    <text x="1164.49px" y="6487.67px" style="font-family:'SegoeUI', 'Segoe UI', sans-serif;font-size:41.667px;fill:rgb(0,111,214);">gaiaonline.com/forum/gaiaupgr.<tspan x="1760.68px " y="6487.67px ">.</tspan>.</text>
                </g>
                <g transform="matrix(0.773732,0,0,0.773732,226.883,-2564.72)">
                    <g transform="matrix(39.2301,0,0,39.2301,1883.86,6407.15)">
                    </g>
                    <text x="1272px" y="6407.15px" style="font-family:'SegoeUI', 'Segoe UI', sans-serif;font-size:39.23px;fill:rgb(83,100,113);">Last edite<tspan x="1438.04px " y="6407.15px ">d</tspan> 7:13 AM · Nov 18, 2024</text>
                </g>
                <g transform="matrix(1.46223,0,0,1.46223,1167.47,2365.9)">
                    <path d="M21.15,6.232C22.12,7.209 22.12,8.791 21.15,9.768L9.91,21L3,21L3,14.086L14.23,2.854C15.21,1.877 16.79,1.877 17.77,2.854L21.15,6.232ZM14.75,19L12.75,21L21,21L21,19L14.75,19Z" style="fill:rgb(83,100,113);fill-rule:nonzero;"/>
                </g>
                <g transform="matrix(1.00123,0,0,0.952129,-3.12509,-4154.21)">
                    <rect x="1168.35" y="6905.66" width="966.354" height="2.144" style="fill:rgb(207,217,222);"/>
                </g>
                <g transform="matrix(2.05679,0,0,2.05679,2085.23,1835.11)">
                    <path d="M18.244,2.25L21.552,2.25L14.325,10.51L22.827,21.75L16.17,21.75L10.956,14.933L4.99,21.75L1.68,21.75L9.41,12.915L1.254,2.25L8.08,2.25L12.793,8.481L18.244,2.25ZM17.083,19.77L18.916,19.77L7.084,4.126L5.117,4.126L17.083,19.77Z" style="fill:rgb(15,20,25);fill-rule:nonzero;"/>
                </g>
                <g transform="matrix(1.65777,0,0,1.65777,1171.15,2443.67)">
                    <path d="M20.884,13.19C19.533,15.67 16.883,18.31 12.505,20.86L12.002,21.16L11.498,20.86C7.119,18.31 4.469,15.67 3.116,13.19C1.756,10.69 1.706,8.33 2.602,6.52C3.489,4.73 5.249,3.61 7.203,3.51C8.854,3.42 10.571,4.07 12.001,5.52C13.43,4.07 15.147,3.42 16.797,3.51C18.751,3.61 20.511,4.73 21.398,6.52C22.294,8.33 22.244,10.69 20.884,13.19Z" style="fill:rgb(249,24,128);fill-rule:nonzero;"/>
                </g>
                <g transform="matrix(1.61488,0,0,1.61488,1317.96,2444.44)">
                    <path d="M1.751,10C1.751,5.58 5.335,2 9.756,2L14.122,2C18.612,2 22.251,5.64 22.251,10.13C22.251,13.09 20.644,15.81 18.055,17.24L10.001,21.7L10.001,18.01L9.934,18.01C5.444,18.11 1.751,14.5 1.751,10Z" style="fill:rgb(29,155,240);fill-rule:nonzero;"/>
                </g>
                <g transform="matrix(1.57709,0,0,1.57709,1498.25,2444.32)">
                    <path d="M18.36,5.64C16.41,3.68 13.25,3.68 11.29,5.64L9.88,7.05L8.46,5.64L9.88,4.22C12.61,1.49 17.04,1.49 19.78,4.22C22.51,6.96 22.51,11.39 19.78,14.12L18.36,15.54L16.95,14.12L18.36,12.71C20.32,10.75 20.32,7.59 18.36,5.64ZM16.24,9.17L9.17,16.24L7.76,14.83L14.83,7.76L16.24,9.17ZM4.22,9.88L5.64,8.46L7.05,9.88L5.64,11.29C3.68,13.25 3.68,16.41 5.64,18.36C7.59,20.32 10.75,20.32 12.71,18.36L14.12,16.95L15.54,18.36L14.12,19.78C11.39,22.51 6.96,22.51 4.22,19.78C1.49,17.04 1.49,12.61 4.22,9.88Z" style="fill:rgb(83,100,113);fill-rule:nonzero;"/>
                </g>
                <g transform="matrix(0.71782,0,0,0.684317,644.152,-1909.34)">
                    <g transform="matrix(39.2301,0,0,39.2301,1444.69,6407.15)">
                    </g>
                    <text x="1272px" y="6407.15px" style="font-family:'SegoeUI-Bold', 'Segoe UI', sans-serif;font-weight:700;font-size:39.23px;fill:rgb(83,100,113);">Copy link</text>
                </g>
                <g transform="matrix(0.71782,0,0,0.684317,464.462,-1909.34)">
                    <g transform="matrix(39.2301,0,0,39.2301,1374.44,6407.15)">
                    </g>
                    <text x="1272px" y="6407.15px" style="font-family:'SegoeUI-Bold', 'Segoe UI', sans-serif;font-weight:700;font-size:39.23px;fill:rgb(83,100,113);">R<tspan x="1296.63px 1317.86px " y="6407.15px 6407.15px ">ep</tspan>ly</text>
                </g>
                <g transform="matrix(0.71782,0,0,0.684317,318.511,-1909.34)">
                    <g transform="matrix(39.2301,0,0,39.2301,1317.13,6407.15)">
                    </g>
                    <text x="1272px" y="6407.15px" style="font-family:'SegoeUI-Bold', 'Segoe UI', sans-serif;font-weight:700;font-size:39.23px;fill:rgb(83,100,113);">13</text>
                </g>
                <g transform="matrix(1.68498,0,0,1.68498,2090.61,2359.9)">
                    <path d="M13.5,8.5C13.5,9.33 12.83,10 12,10C11.17,10 10.5,9.33 10.5,8.5C10.5,7.67 11.17,7 12,7C12.83,7 13.5,7.67 13.5,8.5ZM13,17L13,12L11,12L11,17L13,17ZM12,22.25C17.66,22.25 22.25,17.66 22.25,12C22.25,6.34 17.66,1.75 12,1.75C6.34,1.75 1.75,6.34 1.75,12C1.75,17.66 6.34,22.25 12,22.25ZM20.25,12C20.25,16.56 16.56,20.25 12,20.25C7.44,20.25 3.75,16.56 3.75,12C3.75,7.44 7.44,3.75 12,3.75C16.56,3.75 20.25,7.44 20.25,12Z" style="fill:rgb(83,100,113);fill-rule:nonzero;"/>
                </g>
                <g transform="matrix(1.64501,0,0,0.937821,-750.974,-4047.76)">
                    <path d="M1753.19,7020.62C1753.19,7038.97 1744.7,7053.87 1734.24,7053.87L1185.77,7053.87C1175.3,7053.87 1166.81,7038.97 1166.81,7020.62C1166.81,7002.27 1175.3,6987.37 1185.77,6987.37L1734.24,6987.37C1744.7,6987.37 1753.19,7002.27 1753.19,7020.62Z" style="fill:white;stroke:rgb(207,217,222);stroke-width:1.93px;"/>
                </g>
                <g transform="matrix(0.71782,0,0,0.684317,655.653,-1836.72)">
                    <g transform="matrix(39.2301,0,0,39.2301,1500.73,6407.15)">
                    </g>
                    <text x="1272px" y="6407.15px" style="font-family:'SegoeUI-Bold', 'Segoe UI', sans-serif;font-weight:700;font-size:39.23px;fill:rgb(0,111,214);">R<tspan x="1296.63px 1317.86px " y="6407.15px 6407.15px ">ea</tspan>d 1 r<tspan x="1422.92px 1444.15px " y="6407.15px 6407.15px ">ep</tspan>ly</text>
                </g>
            </g>
            <g id="Bottom-Attribute" serif:id="Bottom Attribute" transform="matrix(1,0,0,1,1057.29,1903.55)">
                <g transform="matrix(1.42028,0,0,1.24117,-251.288,-115.028)">
                    <path d="M796.131,877.512C796.131,897.217 782.151,913.214 764.931,913.214L423.527,913.214C406.307,913.214 392.327,897.217 392.327,877.512C392.327,857.808 406.307,841.81 423.527,841.81L764.931,841.81C782.151,841.81 796.131,857.808 796.131,877.512Z" style="fill:url(#_Linear8);"/>
                </g>
                <g transform="matrix(1.13192,0,0,1.09147,-126.3,15.476)">
                    <g transform="matrix(25.0474,0,0,25.0474,847.515,884.758)">
                    </g>
                    <text x="465.371px" y="884.758px" style="font-family:'SegoeUI', 'Segoe UI', sans-serif;font-size:25.047px;fill:rgb(21,93,252);">Be pa<tspan x="527.158px 535.865px 544.353px " y="884.758px 884.758px 884.758px ">rt </tspan>of<tspan x="573.73px " y="884.758px "> </tspan>our gro<tspan x="663.145px " y="884.758px ">w</tspan>ing community</text>
                </g>
                <g transform="matrix(0.0489953,0,0,0.0489953,354.262,961.574)">
                    <path d="M144,0C187.887,-0 224,36.113 224,80C224,123.887 187.887,160 144,160C100.113,160 64,123.887 64,80C64,36.113 100.113,0 144,0ZM512,0C555.887,-0 592,36.113 592,80C592,123.887 555.887,160 512,160C468.113,160 432,123.887 432,80C432,36.113 468.113,0 512,0ZM0,298.7C0,239.8 47.8,192 106.7,192L149.4,192C165.3,192 180.4,195.5 194,201.7C192.7,208.9 192.1,216.4 192.1,224C192.1,262.2 208.9,296.5 235.4,320L21.3,320C9.6,320 0,310.4 0,298.7ZM618.7,320L404.6,320C431.2,296.5 447.9,262.2 447.9,224C447.9,216.4 447.2,209 446,201.7C459.6,195.4 474.7,192 490.6,192L533.3,192C592.2,192 640,239.8 640,298.7C640,310.5 630.4,320 618.7,320ZM224,224C224,171.336 267.336,128 320,128C372.664,128 416,171.336 416,224C416,276.664 372.664,320 320,320C267.336,320 224,276.664 224,224ZM128,485.3C128,411.7 187.7,352 261.3,352L378.6,352C452.3,352 512,411.7 512,485.3C512,500 500.1,512 485.3,512L154.6,512C139.9,512 127.9,500.1 127.9,485.3L128,485.3Z" style="fill:rgb(21,93,252);fill-rule:nonzero;"/>
                </g>
                <g transform="matrix(0.808644,0,0,0.808644,-791.496,-5515.52)">
                    <g transform="matrix(44.9202,0,0,44.9202,1778.43,7912.47)">
                    </g>
                    <g transform="matrix(44.9202,0,0,44.9202,1792.48,7912.47)">
                    </g>
                    <g transform="matrix(44.9202,0,0,44.9202,2093.13,7912.47)">
                    </g>
                    <text x="1330.17px" y="7912.47px" style="font-family:'SegoeUI', 'Segoe UI', sans-serif;font-size:44.92px;fill:rgb(69,85,108);">Join thousands of<tspan x="1679.05px " y="7912.47px "> </tspan>satisﬁed users<tspan x="1968.24px " y="7912.47px "> </tspan>to<tspan x="2022.09px " y="7912.47px ">d</tspan>ay</text>
                </g>
            </g>
        </g>
    </g>
    <defs>
        <linearGradient id="_Linear1" x1="0" y1="0" x2="1" y2="0" gradientUnits="userSpaceOnUse" gradientTransform="matrix(3256.16,0,0,523.344,399.765,1295.86)"><stop offset="0" style="stop-color:rgb(16,25,45);stop-opacity:1"/><stop offset="1" style="stop-color:rgb(69,85,108);stop-opacity:1"/></linearGradient>
        <linearGradient id="_Linear2" x1="0" y1="0" x2="1" y2="0" gradientUnits="userSpaceOnUse" gradientTransform="matrix(403.804,0,0,71.404,392.327,877.512)"><stop offset="0" style="stop-color:rgb(227,251,236);stop-opacity:1"/><stop offset="1" style="stop-color:rgb(219,234,254);stop-opacity:1"/></linearGradient>
        <linearGradient id="_Linear3" x1="0" y1="0" x2="1" y2="0" gradientUnits="userSpaceOnUse" gradientTransform="matrix(77.5387,60.5685,-77.5387,60.5685,490.818,3552.95)"><stop offset="0" style="stop-color:rgb(240,245,248);stop-opacity:1"/><stop offset="1" style="stop-color:rgb(230,236,243);stop-opacity:1"/></linearGradient>
        <linearGradient id="_Linear4" x1="0" y1="0" x2="1" y2="0" gradientUnits="userSpaceOnUse" gradientTransform="matrix(77.5387,60.5685,-77.5387,60.5685,490.818,3552.95)"><stop offset="0" style="stop-color:rgb(240,245,248);stop-opacity:1"/><stop offset="1" style="stop-color:rgb(230,236,243);stop-opacity:1"/></linearGradient>
        <linearGradient id="_Linear5" x1="0" y1="0" x2="1" y2="0" gradientUnits="userSpaceOnUse" gradientTransform="matrix(77.5387,60.5685,-77.5387,60.5685,490.818,3552.95)"><stop offset="0" style="stop-color:rgb(240,245,248);stop-opacity:1"/><stop offset="1" style="stop-color:rgb(230,236,243);stop-opacity:1"/></linearGradient>
        <linearGradient id="_Linear6" x1="0" y1="0" x2="1" y2="0" gradientUnits="userSpaceOnUse" gradientTransform="matrix(95.5121,0,0,97.7592,1165.13,6367.51)"><stop offset="0" style="stop-color:rgb(49,25,38);stop-opacity:1"/><stop offset="1" style="stop-color:rgb(71,61,62);stop-opacity:1"/></linearGradient>
        <linearGradient id="_Linear7" x1="0" y1="0" x2="1" y2="0" gradientUnits="userSpaceOnUse" gradientTransform="matrix(9.92342e-15,162.062,-70.4349,4.31289e-15,280.686,22.9701)"><stop offset="0" style="stop-color:rgb(234,81,14);stop-opacity:1"/><stop offset="1" style="stop-color:rgb(229,232,119);stop-opacity:1"/></linearGradient>
        <linearGradient id="_Linear8" x1="0" y1="0" x2="1" y2="0" gradientUnits="userSpaceOnUse" gradientTransform="matrix(403.804,0,0,71.404,392.327,877.512)"><stop offset="0" style="stop-color:rgb(224,236,253);stop-opacity:1"/><stop offset="1" style="stop-color:rgb(243,233,254);stop-opacity:1"/></linearGradient>
    </defs>
</svg>
