<?xml version="1.0" encoding="UTF-8" standalone="no"?>
<!DOCTYPE svg PUBLIC "-//W3C//DTD SVG 1.1//EN" "http://www.w3.org/Graphics/SVG/1.1/DTD/svg11.dtd">
<svg width="100%" height="100%" viewBox="0 0 478 72" version="1.1" xmlns="http://www.w3.org/2000/svg" xmlns:xlink="http://www.w3.org/1999/xlink" xml:space="preserve" xmlns:serif="http://www.serif.com/" style="fill-rule:evenodd;clip-rule:evenodd;stroke-linejoin:round;stroke-miterlimit:2;">
    <g transform="matrix(1,0,0,1,-477.764,-1226.34)">
        <g transform="matrix(1,0,0,1,0,-292.077)">
            <g id="MidLeft-B" serif:id="MidLeft B">
                <g id="MidLeft-B1" serif:id="MidLeft B" transform="matrix(-0.328155,-8.04309e-17,1.03132e-17,-0.0421363,1056.73,1594.85)">
                    <rect x="310.428" y="128.441" width="1453.88" height="1685.33" style="fill:rgb(238,243,253);"/>
                </g>
                <g id="Download" transform="matrix(1,0,0,1,88.4326,675.163)">
                    <g transform="matrix(1.18151,0,0,0.990196,-74.2063,10.0031)">
                        <path d="M796.131,877.512C796.131,897.217 782.724,913.214 766.21,913.214L422.248,913.214C405.734,913.214 392.327,897.217 392.327,877.512C392.327,857.808 405.734,841.81 422.248,841.81L766.21,841.81C782.724,841.81 796.131,857.808 796.131,877.512Z" style="fill:rgb(255,225,224);"/>
                    </g>
                    <g transform="matrix(1.32918,0,0,1.32918,-148.158,-283.864)">
                        <g transform="matrix(25.0474,0,0,25.0474,737.101,884.758)">
                        </g>
                        <text x="465.371px" y="884.758px" style="font-family:'SegoeUI-Bold', 'Segoe UI', sans-serif;font-weight:700;font-size:25.047px;fill:rgb(255,0,0);">Browser not suppor<tspan x="698.392px 708.042px " y="884.758px 884.758px ">te</tspan>d</text>
                    </g>
                    <g transform="matrix(0.0713995,0,0,0.0713995,410.533,858.57)">
                        <path d="M320,576C461.4,576 576,461.4 576,320C576,178.6 461.4,64 320,64C178.6,64 64,178.6 64,320C64,461.4 178.6,576 320,576ZM231,231C240.4,221.6 255.6,221.6 264.9,231L319.9,286L374.9,231C384.3,221.6 399.5,221.6 408.8,231C418.1,240.4 418.2,255.6 408.8,264.9L353.8,319.9L408.8,374.9C418.2,384.3 418.2,399.5 408.8,408.8C399.4,418.1 384.2,418.2 374.9,408.8L319.9,353.8L264.9,408.8C255.5,418.2 240.3,418.2 231,408.8C221.7,399.4 221.6,384.2 231,374.9L286,319.9L231,264.9C221.6,255.5 221.6,240.3 231,231Z" style="fill:rgb(255,0,0);fill-rule:nonzero;"/>
                    </g>
                </g>
            </g>
        </g>
    </g>
</svg>
