<?xml version="1.0" encoding="UTF-8" standalone="no"?>
<!DOCTYPE svg PUBLIC "-//W3C//DTD SVG 1.1//EN" "http://www.w3.org/Graphics/SVG/1.1/DTD/svg11.dtd">
<svg width="100%" height="100%" viewBox="0 0 528 93" version="1.1" xmlns="http://www.w3.org/2000/svg" xmlns:xlink="http://www.w3.org/1999/xlink" xml:space="preserve" xmlns:serif="http://www.serif.com/" style="fill-rule:evenodd;clip-rule:evenodd;stroke-linejoin:round;stroke-miterlimit:2;">
    <g transform="matrix(1,0,0,1,-462,-1495.02)">
        <g transform="matrix(1,0,0,1,0,-292.077)">
            <g id="C-TextToCurve" serif:id="C TextToCurve" transform="matrix(1,0,0,1,0,20.0656)">
                <g id="C" transform="matrix(0.32,-3.53105e-17,8.56963e-18,0.0630513,462,1767.03)">
                    <rect x="0" y="0" width="1650" height="1474.95" style="fill:white;"/>
                </g>
                <g id="Download" transform="matrix(1,0,0,1,176.014,934.618)">
                    <g transform="matrix(1.26853,0,0,1.30242,-195.926,-263.973)">
                        <path d="M796.131,877.512C796.131,897.217 779.706,913.214 759.475,913.214L428.983,913.214C408.752,913.214 392.327,897.217 392.327,877.512C392.327,857.808 408.752,841.81 428.983,841.81L759.475,841.81C779.706,841.81 796.131,857.808 796.131,877.512Z" style="fill:url(#_Linear1);"/>
                    </g>
                    <g transform="matrix(1.32918,0,0,1.32918,-163.997,-280.466)">
                        <path d="M489.364,884.758L483.437,884.758L481.72,879.387L473.133,879.387L471.432,884.758L465.539,884.758L474.328,860.613L480.777,860.613L489.364,884.758ZM480.474,875.211L477.881,867.096C477.69,866.49 477.555,865.766 477.477,864.924L477.342,864.924C477.286,865.631 477.145,866.332 476.921,867.028L474.294,875.211L480.474,875.211Z" style="fill:white;fill-rule:nonzero;stroke:black;stroke-width:0.75px;"/>
                        <path d="M508.726,884.758L503.406,884.758L503.406,882.384L503.338,882.384C502.126,884.247 500.347,885.179 498.001,885.179C495.846,885.179 494.112,884.418 492.798,882.897C491.485,881.376 490.828,879.252 490.828,876.524C490.828,873.673 491.552,871.389 493,869.672C494.448,867.954 496.345,867.096 498.691,867.096C500.914,867.096 502.463,867.893 503.338,869.487L503.406,869.487L503.406,859.233L508.726,859.233L508.726,884.758ZM503.507,876.373L503.507,875.076C503.507,873.954 503.181,873.022 502.53,872.281C501.879,871.541 501.032,871.17 499.988,871.17C498.809,871.17 497.889,871.633 497.226,872.559C496.564,873.485 496.233,874.757 496.233,876.373C496.233,877.888 496.553,879.056 497.193,879.875C497.833,880.694 498.719,881.104 499.853,881.104C500.931,881.104 501.809,880.672 502.488,879.808C503.167,878.943 503.507,877.798 503.507,876.373Z" style="fill:white;fill-rule:nonzero;stroke:black;stroke-width:0.75px;"/>
                        <path d="M530.076,884.758L524.755,884.758L524.755,882.384L524.688,882.384C523.475,884.247 521.696,885.179 519.35,885.179C517.195,885.179 515.461,884.418 514.148,882.897C512.834,881.376 512.178,879.252 512.178,876.524C512.178,873.673 512.902,871.389 514.35,869.672C515.798,867.954 517.695,867.096 520.041,867.096C522.263,867.096 523.812,867.893 524.688,869.487L524.755,869.487L524.755,859.233L530.076,859.233L530.076,884.758ZM524.856,876.373L524.856,875.076C524.856,873.954 524.531,873.022 523.88,872.281C523.228,871.541 522.381,871.17 521.337,871.17C520.159,871.17 519.238,871.633 518.576,872.559C517.914,873.485 517.582,874.757 517.582,876.373C517.582,877.888 517.902,879.056 518.542,879.875C519.182,880.694 520.069,881.104 521.202,881.104C522.28,881.104 523.158,880.672 523.837,879.808C524.517,878.943 524.856,877.798 524.856,876.373Z" style="fill:white;fill-rule:nonzero;stroke:black;stroke-width:0.75px;"/>
                        <path d="M554.489,884.556C553.704,884.971 552.519,885.179 550.937,885.179C547.188,885.179 545.313,883.231 545.313,879.336L545.313,871.44L542.518,871.44L542.518,867.517L545.313,867.517L545.313,863.796L550.617,862.28L550.617,867.517L554.489,867.517L554.489,871.44L550.617,871.44L550.617,878.41C550.617,880.206 551.33,881.104 552.755,881.104C553.316,881.104 553.894,880.941 554.489,880.616L554.489,884.556Z" style="fill:white;fill-rule:nonzero;stroke:black;stroke-width:0.75px;"/>
                        <path d="M565.568,885.179C562.695,885.179 560.436,884.373 558.791,882.763C557.147,881.152 556.325,878.966 556.325,876.205C556.325,873.353 557.178,871.123 558.884,869.512C560.59,867.901 562.897,867.096 565.804,867.096C568.666,867.096 570.911,867.901 572.539,869.512C574.166,871.123 574.98,873.252 574.98,875.901C574.98,878.764 574.141,881.026 572.463,882.687C570.785,884.348 568.487,885.179 565.568,885.179ZM565.703,871.17C564.446,871.17 563.469,871.602 562.773,872.467C562.077,873.331 561.729,874.554 561.729,876.137C561.729,879.448 563.065,881.104 565.736,881.104C568.284,881.104 569.558,879.404 569.558,876.002C569.558,872.781 568.273,871.17 565.703,871.17Z" style="fill:white;fill-rule:nonzero;stroke:black;stroke-width:0.75px;"/>
                        <path d="M588.466,884.758L588.466,860.613L597.255,860.613C599.949,860.613 602.02,861.107 603.468,862.095C604.916,863.083 605.64,864.475 605.64,866.271C605.64,867.573 605.2,868.712 604.319,869.689C603.437,870.665 602.312,871.344 600.943,871.726L600.943,871.793C602.66,872.006 604.032,872.641 605.059,873.696C606.086,874.751 606.6,876.036 606.6,877.551C606.6,879.763 605.809,881.517 604.226,882.813C602.643,884.11 600.483,884.758 597.744,884.758L588.466,884.758ZM593.905,864.621L593.905,870.345L596.296,870.345C597.418,870.345 598.302,870.073 598.948,869.529C599.593,868.984 599.916,868.235 599.916,867.281C599.916,865.507 598.591,864.621 595.942,864.621L593.905,864.621ZM593.905,874.386L593.905,880.751L596.851,880.751C598.109,880.751 599.093,880.459 599.806,879.875C600.519,879.291 600.875,878.494 600.875,877.484C600.875,876.519 600.525,875.761 599.823,875.211C599.122,874.661 598.142,874.386 596.885,874.386L593.905,874.386Z" style="fill:white;fill-rule:nonzero;stroke:black;stroke-width:0.75px;"/>
                        <path d="M621.299,872.315C620.659,871.967 619.912,871.793 619.059,871.793C617.903,871.793 617,872.217 616.349,873.064C615.698,873.912 615.372,875.065 615.372,876.524L615.372,884.758L610.052,884.758L610.052,867.517L615.372,867.517L615.372,870.716L615.439,870.716C616.281,868.381 617.797,867.214 619.985,867.214C620.547,867.214 620.984,867.281 621.299,867.416L621.299,872.315Z" style="fill:white;fill-rule:nonzero;stroke:black;stroke-width:0.75px;"/>
                        <path d="M638.119,884.758L633.085,884.758L633.085,882.283L633.017,882.283C631.861,884.213 630.149,885.179 627.882,885.179C626.21,885.179 624.893,884.704 623.934,883.756C622.974,882.807 622.494,881.542 622.494,879.959C622.494,876.614 624.475,874.684 628.438,874.167L633.118,873.544C633.118,871.659 632.097,870.716 630.054,870.716C628,870.716 626.047,871.327 624.195,872.551L624.195,868.544C624.936,868.162 625.949,867.825 627.234,867.533C628.519,867.242 629.689,867.096 630.744,867.096C635.661,867.096 638.119,869.548 638.119,874.453L638.119,884.758ZM633.118,877.754L633.118,876.592L629.987,876.996C628.258,877.22 627.394,878 627.394,879.336C627.394,879.942 627.604,880.439 628.025,880.826C628.446,881.214 629.016,881.407 629.734,881.407C630.733,881.407 631.547,881.062 632.175,880.372C632.804,879.681 633.118,878.809 633.118,877.754Z" style="fill:white;fill-rule:nonzero;stroke:black;stroke-width:0.75px;"/>
                        <path d="M658.744,867.517L652.329,884.758L646.268,884.758L640.156,867.517L645.847,867.517L648.844,878.141C649.181,879.342 649.377,880.363 649.433,881.205L649.501,881.205C649.579,880.408 649.787,879.42 650.124,878.242L653.188,867.517L658.744,867.517Z" style="fill:white;fill-rule:nonzero;stroke:black;stroke-width:0.75px;"/>
                        <path d="M676.171,877.653L664.924,877.653C665.103,880.156 666.68,881.407 669.655,881.407C671.552,881.407 673.219,880.958 674.655,880.06L674.655,883.899C673.061,884.752 670.991,885.179 668.443,885.179C665.659,885.179 663.498,884.407 661.96,882.864C660.422,881.32 659.654,879.168 659.654,876.407C659.654,873.544 660.484,871.277 662.145,869.604C663.807,867.932 665.85,867.096 668.274,867.096C670.788,867.096 672.733,867.842 674.108,869.335C675.483,870.828 676.171,872.854 676.171,875.413L676.171,877.653ZM671.237,874.386C671.237,871.917 670.238,870.682 668.24,870.682C667.387,870.682 666.649,871.036 666.026,871.743C665.403,872.45 665.025,873.331 664.89,874.386L671.237,874.386Z" style="fill:white;fill-rule:nonzero;stroke:black;stroke-width:0.75px;"/>
                    </g>
                    <g transform="matrix(0.0829614,0,0,0.0829614,380.978,857.674)">
                        <path d="M288,32C288,14.3 273.7,0 256,0C238.3,0 224,14.3 224,32L224,274.7L150.6,201.3C138.1,188.8 117.8,188.8 105.3,201.3C92.8,213.8 92.8,234.1 105.3,246.6L233.3,374.6C245.8,387.1 266.1,387.1 278.6,374.6L406.6,246.6C419.1,234.1 419.1,213.8 406.6,201.3C394.1,188.8 373.8,188.8 361.3,201.3L288,274.7L288,32ZM64,352C28.7,352 0,380.7 0,416L0,448C0,483.3 28.7,512 64,512L448,512C483.3,512 512,483.3 512,448L512,416C512,380.7 483.3,352 448,352L346.5,352L301.2,397.3C276.2,422.3 235.7,422.3 210.7,397.3L165.5,352L64,352ZM432,408C445.166,408 456,418.834 456,432C456,445.166 445.166,456 432,456C418.834,456 408,445.166 408,432C408,418.834 418.834,408 432,408Z" style="fill:white;fill-rule:nonzero;"/>
                    </g>
                </g>
            </g>
        </g>
    </g>
    <defs>
        <linearGradient id="_Linear1" x1="0" y1="0" x2="1" y2="0" gradientUnits="userSpaceOnUse" gradientTransform="matrix(403.804,0,0,71.404,392.327,877.512)"><stop offset="0" style="stop-color:rgb(23,93,252);stop-opacity:1"/><stop offset="1" style="stop-color:rgb(152,19,250);stop-opacity:1"/></linearGradient>
    </defs>
</svg>
