<?xml version="1.0" encoding="UTF-8" standalone="no"?>
<!DOCTYPE svg PUBLIC "-//W3C//DTD SVG 1.1//EN" "http://www.w3.org/Graphics/SVG/1.1/DTD/svg11.dtd">
<svg width="100%" height="100%" viewBox="0 0 528 93" version="1.1" xmlns="http://www.w3.org/2000/svg" xmlns:xlink="http://www.w3.org/1999/xlink" xml:space="preserve" xmlns:serif="http://www.serif.com/" style="fill-rule:evenodd;clip-rule:evenodd;stroke-linejoin:round;stroke-miterlimit:2;">
    <g transform="matrix(1,0,0,1,-462,-1495.02)">
        <g transform="matrix(1,0,0,1,0,-292.077)">
            <g id="C-TextToCurve" serif:id="C TextToCurve" transform="matrix(1,0,0,1,0,20.0656)">
                <g id="C" transform="matrix(0.32,-3.53105e-17,8.56963e-18,0.0630513,462,1767.03)">
                    <rect x="0" y="0" width="1650" height="1474.95" style="fill:white;"/>
                </g>
                <g id="Download" transform="matrix(1,0,0,1,176.014,934.618)">
                    <g transform="matrix(1.26853,0,0,1.30242,-195.926,-263.973)">
                        <path d="M796.131,877.512C796.131,897.217 779.706,913.214 759.475,913.214L428.983,913.214C408.752,913.214 392.327,897.217 392.327,877.512C392.327,857.808 408.752,841.81 428.983,841.81L759.475,841.81C779.706,841.81 796.131,857.808 796.131,877.512Z" style="fill:url(#_Linear1);"/>
                    </g>
                    <g transform="matrix(1.32918,0,0,1.32918,-187.786,-280.466)">
                        <path d="M489.364,884.758L483.437,884.758L481.72,879.387L473.133,879.387L471.432,884.758L465.539,884.758L474.328,860.613L480.777,860.613L489.364,884.758ZM480.474,875.211L477.881,867.096C477.69,866.49 477.555,865.766 477.477,864.924L477.342,864.924C477.286,865.631 477.145,866.332 476.921,867.028L474.294,875.211L480.474,875.211Z" style="fill:white;fill-rule:nonzero;stroke:black;stroke-width:0.75px;"/>
                        <path d="M508.726,884.758L503.406,884.758L503.406,882.384L503.338,882.384C502.126,884.247 500.347,885.179 498.001,885.179C495.846,885.179 494.112,884.418 492.798,882.897C491.485,881.376 490.828,879.252 490.828,876.524C490.828,873.673 491.552,871.389 493,869.672C494.448,867.954 496.345,867.096 498.691,867.096C500.914,867.096 502.463,867.893 503.338,869.487L503.406,869.487L503.406,859.233L508.726,859.233L508.726,884.758ZM503.507,876.373L503.507,875.076C503.507,873.954 503.181,873.022 502.53,872.281C501.879,871.541 501.032,871.17 499.988,871.17C498.809,871.17 497.889,871.633 497.226,872.559C496.564,873.485 496.233,874.757 496.233,876.373C496.233,877.888 496.553,879.056 497.193,879.875C497.833,880.694 498.719,881.104 499.853,881.104C500.931,881.104 501.809,880.672 502.488,879.808C503.167,878.943 503.507,877.798 503.507,876.373Z" style="fill:white;fill-rule:nonzero;stroke:black;stroke-width:0.75px;"/>
                        <path d="M530.076,884.758L524.755,884.758L524.755,882.384L524.688,882.384C523.475,884.247 521.696,885.179 519.35,885.179C517.195,885.179 515.461,884.418 514.148,882.897C512.834,881.376 512.178,879.252 512.178,876.524C512.178,873.673 512.902,871.389 514.35,869.672C515.798,867.954 517.695,867.096 520.041,867.096C522.263,867.096 523.812,867.893 524.688,869.487L524.755,869.487L524.755,859.233L530.076,859.233L530.076,884.758ZM524.856,876.373L524.856,875.076C524.856,873.954 524.531,873.022 523.88,872.281C523.228,871.541 522.381,871.17 521.337,871.17C520.159,871.17 519.238,871.633 518.576,872.559C517.914,873.485 517.582,874.757 517.582,876.373C517.582,877.888 517.902,879.056 518.542,879.875C519.182,880.694 520.069,881.104 521.202,881.104C522.28,881.104 523.158,880.672 523.837,879.808C524.517,878.943 524.856,877.798 524.856,876.373Z" style="fill:white;fill-rule:nonzero;stroke:black;stroke-width:0.75px;"/>
                        <path d="M554.489,884.556C553.704,884.971 552.519,885.179 550.937,885.179C547.188,885.179 545.313,883.231 545.313,879.336L545.313,871.44L542.518,871.44L542.518,867.517L545.313,867.517L545.313,863.796L550.617,862.28L550.617,867.517L554.489,867.517L554.489,871.44L550.617,871.44L550.617,878.41C550.617,880.206 551.33,881.104 552.755,881.104C553.316,881.104 553.894,880.941 554.489,880.616L554.489,884.556Z" style="fill:white;fill-rule:nonzero;stroke:black;stroke-width:0.75px;"/>
                        <path d="M565.568,885.179C562.695,885.179 560.436,884.373 558.791,882.763C557.147,881.152 556.325,878.966 556.325,876.205C556.325,873.353 557.178,871.123 558.884,869.512C560.59,867.901 562.897,867.096 565.804,867.096C568.666,867.096 570.911,867.901 572.539,869.512C574.166,871.123 574.98,873.252 574.98,875.901C574.98,878.764 574.141,881.026 572.463,882.687C570.785,884.348 568.487,885.179 565.568,885.179ZM565.703,871.17C564.446,871.17 563.469,871.602 562.773,872.467C562.077,873.331 561.729,874.554 561.729,876.137C561.729,879.448 563.065,881.104 565.736,881.104C568.284,881.104 569.558,879.404 569.558,876.002C569.558,872.781 568.273,871.17 565.703,871.17Z" style="fill:white;fill-rule:nonzero;stroke:black;stroke-width:0.75px;"/>
                        <path d="M605.775,883.899C604.013,884.752 601.712,885.179 598.872,885.179C595.168,885.179 592.255,884.09 590.133,881.912C588.012,879.735 586.951,876.833 586.951,873.208C586.951,869.346 588.144,866.215 590.529,863.812C592.914,861.41 596.009,860.209 599.815,860.209C602.172,860.209 604.159,860.507 605.775,861.102L605.775,866.338C604.159,865.373 602.318,864.89 600.252,864.89C597.985,864.89 596.155,865.603 594.764,867.028C593.372,868.454 592.676,870.385 592.676,872.82C592.676,875.155 593.332,877.016 594.646,878.402C595.959,879.788 597.727,880.481 599.949,880.481C602.071,880.481 604.013,879.965 605.775,878.932L605.775,883.899Z" style="fill:white;fill-rule:nonzero;stroke:black;stroke-width:0.75px;"/>
                        <path d="M626.013,884.758L620.709,884.758L620.709,874.959C620.709,872.433 619.789,871.17 617.948,871.17C617.005,871.17 616.242,871.524 615.658,872.231C615.075,872.938 614.783,873.836 614.783,874.925L614.783,884.758L609.462,884.758L609.462,859.233L614.783,859.233L614.783,870.076L614.85,870.076C616.152,868.089 617.92,867.096 620.154,867.096C624.06,867.096 626.013,869.453 626.013,874.167L626.013,884.758Z" style="fill:white;fill-rule:nonzero;stroke:black;stroke-width:0.75px;"/>
                        <path d="M641.47,872.315C640.83,871.967 640.083,871.793 639.23,871.793C638.074,871.793 637.17,872.217 636.519,873.064C635.868,873.912 635.543,875.065 635.543,876.524L635.543,884.758L630.222,884.758L630.222,867.517L635.543,867.517L635.543,870.716L635.61,870.716C636.452,868.381 637.967,867.214 640.156,867.214C640.717,867.214 641.155,867.281 641.47,867.416L641.47,872.315Z" style="fill:white;fill-rule:nonzero;stroke:black;stroke-width:0.75px;"/>
                        <path d="M652.026,885.179C649.153,885.179 646.894,884.373 645.249,882.763C643.605,881.152 642.783,878.966 642.783,876.205C642.783,873.353 643.636,871.123 645.342,869.512C647.048,867.901 649.355,867.096 652.262,867.096C655.124,867.096 657.369,867.901 658.997,869.512C660.625,871.123 661.438,873.252 661.438,875.901C661.438,878.764 660.599,881.026 658.921,882.687C657.243,884.348 654.945,885.179 652.026,885.179ZM652.161,871.17C650.904,871.17 649.927,871.602 649.231,872.467C648.535,873.331 648.188,874.554 648.188,876.137C648.188,879.448 649.523,881.104 652.195,881.104C654.743,881.104 656.017,879.404 656.017,876.002C656.017,872.781 654.732,871.17 652.161,871.17Z" style="fill:white;fill-rule:nonzero;stroke:black;stroke-width:0.75px;"/>
                        <path d="M692.267,884.758L686.963,884.758L686.963,874.925C686.963,872.422 686.043,871.17 684.202,871.17C683.326,871.17 682.614,871.546 682.064,872.298C681.514,873.05 681.239,873.988 681.239,875.11L681.239,884.758L675.918,884.758L675.918,874.824C675.918,872.388 675.015,871.17 673.207,871.17C672.298,871.17 671.571,871.529 671.027,872.248C670.483,872.966 670.21,873.943 670.21,875.177L670.21,884.758L664.89,884.758L664.89,867.517L670.21,867.517L670.21,870.211L670.278,870.211C670.828,869.29 671.599,868.541 672.593,867.963C673.586,867.385 674.672,867.096 675.851,867.096C678.287,867.096 679.953,868.168 680.851,870.312C682.165,868.168 684.095,867.096 686.643,867.096C690.392,867.096 692.267,869.408 692.267,874.033L692.267,884.758Z" style="fill:white;fill-rule:nonzero;stroke:black;stroke-width:0.75px;"/>
                        <path d="M711.966,877.653L700.719,877.653C700.899,880.156 702.476,881.407 705.45,881.407C707.347,881.407 709.014,880.958 710.451,880.06L710.451,883.899C708.857,884.752 706.786,885.179 704.238,885.179C701.454,885.179 699.294,884.407 697.756,882.864C696.218,881.32 695.449,879.168 695.449,876.407C695.449,873.544 696.28,871.277 697.941,869.604C699.602,867.932 701.645,867.096 704.07,867.096C706.584,867.096 708.529,867.842 709.904,869.335C711.279,870.828 711.966,872.854 711.966,875.413L711.966,877.653ZM707.033,874.386C707.033,871.917 706.034,870.682 704.036,870.682C703.183,870.682 702.445,871.036 701.822,871.743C701.199,872.45 700.82,873.331 700.685,874.386L707.033,874.386Z" style="fill:white;fill-rule:nonzero;stroke:black;stroke-width:0.75px;"/>
                    </g>
                    <g transform="matrix(0.0829614,0,0,0.0829614,357.188,857.674)">
                        <path d="M288,32C288,14.3 273.7,0 256,0C238.3,0 224,14.3 224,32L224,274.7L150.6,201.3C138.1,188.8 117.8,188.8 105.3,201.3C92.8,213.8 92.8,234.1 105.3,246.6L233.3,374.6C245.8,387.1 266.1,387.1 278.6,374.6L406.6,246.6C419.1,234.1 419.1,213.8 406.6,201.3C394.1,188.8 373.8,188.8 361.3,201.3L288,274.7L288,32ZM64,352C28.7,352 0,380.7 0,416L0,448C0,483.3 28.7,512 64,512L448,512C483.3,512 512,483.3 512,448L512,416C512,380.7 483.3,352 448,352L346.5,352L301.2,397.3C276.2,422.3 235.7,422.3 210.7,397.3L165.5,352L64,352ZM432,408C445.166,408 456,418.834 456,432C456,445.166 445.166,456 432,456C418.834,456 408,445.166 408,432C408,418.834 418.834,408 432,408Z" style="fill:white;fill-rule:nonzero;"/>
                    </g>
                </g>
            </g>
        </g>
    </g>
    <defs>
        <linearGradient id="_Linear1" x1="0" y1="0" x2="1" y2="0" gradientUnits="userSpaceOnUse" gradientTransform="matrix(403.804,0,0,71.404,392.327,877.512)"><stop offset="0" style="stop-color:rgb(23,93,252);stop-opacity:1"/><stop offset="1" style="stop-color:rgb(152,19,250);stop-opacity:1"/></linearGradient>
    </defs>
</svg>
