<?xml version="1.0" encoding="UTF-8" standalone="no"?>
<!DOCTYPE svg PUBLIC "-//W3C//DTD SVG 1.1//EN" "http://www.w3.org/Graphics/SVG/1.1/DTD/svg11.dtd">
<svg width="100%" height="100%" viewBox="0 0 528 93" version="1.1" xmlns="http://www.w3.org/2000/svg" xmlns:xlink="http://www.w3.org/1999/xlink" xml:space="preserve" xmlns:serif="http://www.serif.com/" style="fill-rule:evenodd;clip-rule:evenodd;stroke-linejoin:round;stroke-miterlimit:2;">
    <g transform="matrix(1,0,0,1,-462,-1495.02)">
        <g transform="matrix(1,0,0,1,0,-292.077)">
            <g id="C-TextToCurve" serif:id="C TextToCurve" transform="matrix(1,0,0,1,0,20.0656)">
                <g id="C" transform="matrix(0.32,-3.53105e-17,8.56963e-18,0.0630513,462,1767.03)">
                    <rect x="0" y="0" width="1650" height="1474.95" style="fill:white;"/>
                </g>
                <g id="Download" transform="matrix(1,0,0,1,176.014,934.618)">
                    <g transform="matrix(1.26853,0,0,1.30242,-195.926,-263.973)">
                        <path d="M796.131,877.512C796.131,897.217 779.706,913.214 759.475,913.214L428.983,913.214C408.752,913.214 392.327,897.217 392.327,877.512C392.327,857.808 408.752,841.81 428.983,841.81L759.475,841.81C779.706,841.81 796.131,857.808 796.131,877.512Z" style="fill:url(#_Linear1);"/>
                    </g>
                    <g transform="matrix(1.32918,0,0,1.32918,-162.642,-280.466)">
                        <path d="M489.364,884.758L483.437,884.758L481.72,879.387L473.133,879.387L471.432,884.758L465.539,884.758L474.328,860.613L480.777,860.613L489.364,884.758ZM480.474,875.211L477.881,867.096C477.69,866.49 477.555,865.766 477.477,864.924L477.342,864.924C477.286,865.631 477.145,866.332 476.921,867.028L474.294,875.211L480.474,875.211Z" style="fill:white;fill-rule:nonzero;stroke:black;stroke-width:0.75px;"/>
                        <path d="M508.726,884.758L503.406,884.758L503.406,882.384L503.338,882.384C502.126,884.247 500.347,885.179 498.001,885.179C495.846,885.179 494.112,884.418 492.798,882.897C491.485,881.376 490.828,879.252 490.828,876.524C490.828,873.673 491.552,871.389 493,869.672C494.448,867.954 496.345,867.096 498.691,867.096C500.914,867.096 502.463,867.893 503.338,869.487L503.406,869.487L503.406,859.233L508.726,859.233L508.726,884.758ZM503.507,876.373L503.507,875.076C503.507,873.954 503.181,873.022 502.53,872.281C501.879,871.541 501.032,871.17 499.988,871.17C498.809,871.17 497.889,871.633 497.226,872.559C496.564,873.485 496.233,874.757 496.233,876.373C496.233,877.888 496.553,879.056 497.193,879.875C497.833,880.694 498.719,881.104 499.853,881.104C500.931,881.104 501.809,880.672 502.488,879.808C503.167,878.943 503.507,877.798 503.507,876.373Z" style="fill:white;fill-rule:nonzero;stroke:black;stroke-width:0.75px;"/>
                        <path d="M530.076,884.758L524.755,884.758L524.755,882.384L524.688,882.384C523.475,884.247 521.696,885.179 519.35,885.179C517.195,885.179 515.461,884.418 514.148,882.897C512.834,881.376 512.178,879.252 512.178,876.524C512.178,873.673 512.902,871.389 514.35,869.672C515.798,867.954 517.695,867.096 520.041,867.096C522.263,867.096 523.812,867.893 524.688,869.487L524.755,869.487L524.755,859.233L530.076,859.233L530.076,884.758ZM524.856,876.373L524.856,875.076C524.856,873.954 524.531,873.022 523.88,872.281C523.228,871.541 522.381,871.17 521.337,871.17C520.159,871.17 519.238,871.633 518.576,872.559C517.914,873.485 517.582,874.757 517.582,876.373C517.582,877.888 517.902,879.056 518.542,879.875C519.182,880.694 520.069,881.104 521.202,881.104C522.28,881.104 523.158,880.672 523.837,879.808C524.517,878.943 524.856,877.798 524.856,876.373Z" style="fill:white;fill-rule:nonzero;stroke:black;stroke-width:0.75px;"/>
                        <path d="M554.489,884.556C553.704,884.971 552.519,885.179 550.937,885.179C547.188,885.179 545.313,883.231 545.313,879.336L545.313,871.44L542.518,871.44L542.518,867.517L545.313,867.517L545.313,863.796L550.617,862.28L550.617,867.517L554.489,867.517L554.489,871.44L550.617,871.44L550.617,878.41C550.617,880.206 551.33,881.104 552.755,881.104C553.316,881.104 553.894,880.941 554.489,880.616L554.489,884.556Z" style="fill:white;fill-rule:nonzero;stroke:black;stroke-width:0.75px;"/>
                        <path d="M565.568,885.179C562.695,885.179 560.436,884.373 558.791,882.763C557.147,881.152 556.325,878.966 556.325,876.205C556.325,873.353 557.178,871.123 558.884,869.512C560.59,867.901 562.897,867.096 565.804,867.096C568.666,867.096 570.911,867.901 572.539,869.512C574.166,871.123 574.98,873.252 574.98,875.901C574.98,878.764 574.141,881.026 572.463,882.687C570.785,884.348 568.487,885.179 565.568,885.179ZM565.703,871.17C564.446,871.17 563.469,871.602 562.773,872.467C562.077,873.331 561.729,874.554 561.729,876.137C561.729,879.448 563.065,881.104 565.736,881.104C568.284,881.104 569.558,879.404 569.558,876.002C569.558,872.781 568.273,871.17 565.703,871.17Z" style="fill:white;fill-rule:nonzero;stroke:black;stroke-width:0.75px;"/>
                        <path d="M602.946,884.758L588.466,884.758L588.466,860.613L602.391,860.613L602.391,865.042L593.905,865.042L593.905,870.413L601.801,870.413L601.801,874.824L593.905,874.824L593.905,880.346L602.946,880.346L602.946,884.758Z" style="fill:white;fill-rule:nonzero;stroke:black;stroke-width:0.75px;"/>
                        <path d="M623.168,884.758L617.847,884.758L617.847,882.384L617.78,882.384C616.568,884.247 614.788,885.179 612.442,885.179C610.287,885.179 608.553,884.418 607.24,882.897C605.927,881.376 605.27,879.252 605.27,876.524C605.27,873.673 605.994,871.389 607.442,869.672C608.89,867.954 610.787,867.096 613.133,867.096C615.355,867.096 616.904,867.893 617.78,869.487L617.847,869.487L617.847,859.233L623.168,859.233L623.168,884.758ZM617.948,876.373L617.948,875.076C617.948,873.954 617.623,873.022 616.972,872.281C616.321,871.541 615.473,871.17 614.429,871.17C613.251,871.17 612.33,871.633 611.668,872.559C611.006,873.485 610.675,874.757 610.675,876.373C610.675,877.888 610.994,879.056 611.634,879.875C612.274,880.694 613.161,881.104 614.295,881.104C615.372,881.104 616.25,880.672 616.93,879.808C617.609,878.943 617.948,877.798 617.948,876.373Z" style="fill:white;fill-rule:nonzero;stroke:black;stroke-width:0.75px;"/>
                        <path d="M644.551,882.788C644.551,885.987 643.625,888.465 641.773,890.221C639.921,891.978 637.238,892.856 633.724,892.856C631.401,892.856 629.56,892.525 628.202,891.863L628.202,887.384C629.975,888.417 631.766,888.933 633.573,888.933C635.369,888.933 636.761,888.459 637.749,887.511C638.736,886.562 639.23,885.274 639.23,883.647L639.23,882.283L639.163,882.283C637.951,884.213 636.16,885.179 633.792,885.179C631.592,885.179 629.846,884.404 628.556,882.855C627.265,881.306 626.619,879.23 626.619,876.625C626.619,873.707 627.338,871.389 628.774,869.672C630.211,867.954 632.103,867.096 634.448,867.096C636.548,867.096 638.119,867.904 639.163,869.52L639.23,869.52L639.23,867.517L644.551,867.517L644.551,882.788ZM639.298,876.474L639.298,875.11C639.298,874.021 638.975,873.092 638.329,872.324C637.684,871.555 636.845,871.17 635.812,871.17C634.634,871.17 633.708,871.63 633.034,872.551C632.361,873.471 632.024,874.768 632.024,876.44C632.024,877.877 632.344,879.014 632.984,879.85C633.623,880.686 634.499,881.104 635.61,881.104C636.71,881.104 637.6,880.68 638.279,879.833C638.958,878.985 639.298,877.866 639.298,876.474Z" style="fill:white;fill-rule:nonzero;stroke:black;stroke-width:0.75px;"/>
                        <path d="M664.486,877.653L653.239,877.653C653.418,880.156 654.995,881.407 657.97,881.407C659.867,881.407 661.534,880.958 662.97,880.06L662.97,883.899C661.377,884.752 659.306,885.179 656.758,885.179C653.974,885.179 651.813,884.407 650.275,882.864C648.738,881.32 647.969,879.168 647.969,876.407C647.969,873.544 648.799,871.277 650.461,869.604C652.122,867.932 654.165,867.096 656.589,867.096C659.104,867.096 661.048,867.842 662.423,869.335C663.798,870.828 664.486,872.854 664.486,875.413L664.486,877.653ZM659.553,874.386C659.553,871.917 658.554,870.682 656.556,870.682C655.702,870.682 654.964,871.036 654.341,871.743C653.719,872.45 653.34,873.331 653.205,874.386L659.553,874.386Z" style="fill:white;fill-rule:nonzero;stroke:black;stroke-width:0.75px;"/>
                    </g>
                    <g transform="matrix(0.0829614,0,0,0.0829614,382.332,857.674)">
                        <path d="M288,32C288,14.3 273.7,0 256,0C238.3,0 224,14.3 224,32L224,274.7L150.6,201.3C138.1,188.8 117.8,188.8 105.3,201.3C92.8,213.8 92.8,234.1 105.3,246.6L233.3,374.6C245.8,387.1 266.1,387.1 278.6,374.6L406.6,246.6C419.1,234.1 419.1,213.8 406.6,201.3C394.1,188.8 373.8,188.8 361.3,201.3L288,274.7L288,32ZM64,352C28.7,352 0,380.7 0,416L0,448C0,483.3 28.7,512 64,512L448,512C483.3,512 512,483.3 512,448L512,416C512,380.7 483.3,352 448,352L346.5,352L301.2,397.3C276.2,422.3 235.7,422.3 210.7,397.3L165.5,352L64,352ZM432,408C445.166,408 456,418.834 456,432C456,445.166 445.166,456 432,456C418.834,456 408,445.166 408,432C408,418.834 418.834,408 432,408Z" style="fill:white;fill-rule:nonzero;"/>
                    </g>
                </g>
            </g>
        </g>
    </g>
    <defs>
        <linearGradient id="_Linear1" x1="0" y1="0" x2="1" y2="0" gradientUnits="userSpaceOnUse" gradientTransform="matrix(403.804,0,0,71.404,392.327,877.512)"><stop offset="0" style="stop-color:rgb(23,93,252);stop-opacity:1"/><stop offset="1" style="stop-color:rgb(152,19,250);stop-opacity:1"/></linearGradient>
    </defs>
</svg>
