<?xml version="1.0" encoding="UTF-8" standalone="no"?>
<!DOCTYPE svg PUBLIC "-//W3C//DTD SVG 1.1//EN" "http://www.w3.org/Graphics/SVG/1.1/DTD/svg11.dtd">
<svg width="100%" height="100%" viewBox="0 0 528 93" version="1.1" xmlns="http://www.w3.org/2000/svg" xmlns:xlink="http://www.w3.org/1999/xlink" xml:space="preserve" xmlns:serif="http://www.serif.com/" style="fill-rule:evenodd;clip-rule:evenodd;stroke-linejoin:round;stroke-miterlimit:2;">
    <g transform="matrix(1,0,0,1,-462,-1495.02)">
        <g transform="matrix(1,0,0,1,0,-292.077)">
            <g id="C-TextToCurve" serif:id="C TextToCurve" transform="matrix(1,0,0,1,0,20.0656)">
                <g id="C" transform="matrix(0.32,-3.53105e-17,8.56963e-18,0.0630513,462,1767.03)">
                    <rect x="0" y="0" width="1650" height="1474.95" style="fill:white;"/>
                </g>
                <g id="Download" transform="matrix(1,0,0,1,176.014,934.618)">
                    <g transform="matrix(1.26853,0,0,1.30242,-195.926,-263.973)">
                        <path d="M796.131,877.512C796.131,897.217 779.706,913.214 759.475,913.214L428.983,913.214C408.752,913.214 392.327,897.217 392.327,877.512C392.327,857.808 408.752,841.81 428.983,841.81L759.475,841.81C779.706,841.81 796.131,857.808 796.131,877.512Z" style="fill:url(#_Linear1);"/>
                    </g>
                    <g transform="matrix(1.32918,0,0,1.32918,-181.1,-280.466)">
                        <path d="M489.364,884.758L483.437,884.758L481.72,879.387L473.133,879.387L471.432,884.758L465.539,884.758L474.328,860.613L480.777,860.613L489.364,884.758ZM480.474,875.211L477.881,867.096C477.69,866.49 477.555,865.766 477.477,864.924L477.342,864.924C477.286,865.631 477.145,866.332 476.921,867.028L474.294,875.211L480.474,875.211Z" style="fill:white;fill-rule:nonzero;stroke:black;stroke-width:0.75px;"/>
                        <path d="M508.726,884.758L503.406,884.758L503.406,882.384L503.338,882.384C502.126,884.247 500.347,885.179 498.001,885.179C495.846,885.179 494.112,884.418 492.798,882.897C491.485,881.376 490.828,879.252 490.828,876.524C490.828,873.673 491.552,871.389 493,869.672C494.448,867.954 496.345,867.096 498.691,867.096C500.914,867.096 502.463,867.893 503.338,869.487L503.406,869.487L503.406,859.233L508.726,859.233L508.726,884.758ZM503.507,876.373L503.507,875.076C503.507,873.954 503.181,873.022 502.53,872.281C501.879,871.541 501.032,871.17 499.988,871.17C498.809,871.17 497.889,871.633 497.226,872.559C496.564,873.485 496.233,874.757 496.233,876.373C496.233,877.888 496.553,879.056 497.193,879.875C497.833,880.694 498.719,881.104 499.853,881.104C500.931,881.104 501.809,880.672 502.488,879.808C503.167,878.943 503.507,877.798 503.507,876.373Z" style="fill:white;fill-rule:nonzero;stroke:black;stroke-width:0.75px;"/>
                        <path d="M530.076,884.758L524.755,884.758L524.755,882.384L524.688,882.384C523.475,884.247 521.696,885.179 519.35,885.179C517.195,885.179 515.461,884.418 514.148,882.897C512.834,881.376 512.178,879.252 512.178,876.524C512.178,873.673 512.902,871.389 514.35,869.672C515.798,867.954 517.695,867.096 520.041,867.096C522.263,867.096 523.812,867.893 524.688,869.487L524.755,869.487L524.755,859.233L530.076,859.233L530.076,884.758ZM524.856,876.373L524.856,875.076C524.856,873.954 524.531,873.022 523.88,872.281C523.228,871.541 522.381,871.17 521.337,871.17C520.159,871.17 519.238,871.633 518.576,872.559C517.914,873.485 517.582,874.757 517.582,876.373C517.582,877.888 517.902,879.056 518.542,879.875C519.182,880.694 520.069,881.104 521.202,881.104C522.28,881.104 523.158,880.672 523.837,879.808C524.517,878.943 524.856,877.798 524.856,876.373Z" style="fill:white;fill-rule:nonzero;stroke:black;stroke-width:0.75px;"/>
                        <path d="M554.489,884.556C553.704,884.971 552.519,885.179 550.937,885.179C547.188,885.179 545.313,883.231 545.313,879.336L545.313,871.44L542.518,871.44L542.518,867.517L545.313,867.517L545.313,863.796L550.617,862.28L550.617,867.517L554.489,867.517L554.489,871.44L550.617,871.44L550.617,878.41C550.617,880.206 551.33,881.104 552.755,881.104C553.316,881.104 553.894,880.941 554.489,880.616L554.489,884.556Z" style="fill:white;fill-rule:nonzero;stroke:black;stroke-width:0.75px;"/>
                        <path d="M565.568,885.179C562.695,885.179 560.436,884.373 558.791,882.763C557.147,881.152 556.325,878.966 556.325,876.205C556.325,873.353 557.178,871.123 558.884,869.512C560.59,867.901 562.897,867.096 565.804,867.096C568.666,867.096 570.911,867.901 572.539,869.512C574.166,871.123 574.98,873.252 574.98,875.901C574.98,878.764 574.141,881.026 572.463,882.687C570.785,884.348 568.487,885.179 565.568,885.179ZM565.703,871.17C564.446,871.17 563.469,871.602 562.773,872.467C562.077,873.331 561.729,874.554 561.729,876.137C561.729,879.448 563.065,881.104 565.736,881.104C568.284,881.104 569.558,879.404 569.558,876.002C569.558,872.781 568.273,871.17 565.703,871.17Z" style="fill:white;fill-rule:nonzero;stroke:black;stroke-width:0.75px;"/>
                        <path d="M602.424,865.042L593.905,865.042L593.905,870.968L601.734,870.968L601.734,875.38L593.905,875.38L593.905,884.758L588.466,884.758L588.466,860.613L602.424,860.613L602.424,865.042Z" style="fill:white;fill-rule:nonzero;stroke:black;stroke-width:0.75px;"/>
                        <path d="M608.57,864.789C607.672,864.789 606.937,864.522 606.364,863.989C605.792,863.456 605.506,862.802 605.506,862.028C605.506,861.231 605.792,860.58 606.364,860.075C606.937,859.57 607.672,859.317 608.57,859.317C609.479,859.317 610.217,859.57 610.784,860.075C611.351,860.58 611.634,861.231 611.634,862.028C611.634,862.836 611.351,863.498 610.784,864.015C610.217,864.531 609.479,864.789 608.57,864.789ZM611.197,884.758L605.876,884.758L605.876,867.517L611.197,867.517L611.197,884.758Z" style="fill:white;fill-rule:nonzero;stroke:black;stroke-width:0.75px;"/>
                        <path d="M626.922,872.315C626.283,871.967 625.536,871.793 624.683,871.793C623.527,871.793 622.623,872.217 621.972,873.064C621.321,873.912 620.996,875.065 620.996,876.524L620.996,884.758L615.675,884.758L615.675,867.517L620.996,867.517L620.996,870.716L621.063,870.716C621.905,868.381 623.42,867.214 625.609,867.214C626.17,867.214 626.608,867.281 626.922,867.416L626.922,872.315Z" style="fill:white;fill-rule:nonzero;stroke:black;stroke-width:0.75px;"/>
                        <path d="M644.753,877.653L633.506,877.653C633.685,880.156 635.262,881.407 638.237,881.407C640.134,881.407 641.801,880.958 643.237,880.06L643.237,883.899C641.644,884.752 639.573,885.179 637.025,885.179C634.241,885.179 632.08,884.407 630.542,882.864C629.005,881.32 628.236,879.168 628.236,876.407C628.236,873.544 629.066,871.277 630.727,869.604C632.389,867.932 634.432,867.096 636.856,867.096C639.371,867.096 641.315,867.842 642.69,869.335C644.065,870.828 644.753,872.854 644.753,875.413L644.753,877.653ZM639.82,874.386C639.82,871.917 638.821,870.682 636.823,870.682C635.969,870.682 635.231,871.036 634.608,871.743C633.985,872.45 633.607,873.331 633.472,874.386L639.82,874.386Z" style="fill:white;fill-rule:nonzero;stroke:black;stroke-width:0.75px;"/>
                        <path d="M659.165,863.307C658.481,863.038 657.824,862.903 657.195,862.903C655.489,862.903 654.636,863.829 654.636,865.681L654.636,867.517L658.576,867.517L658.576,871.44L654.636,871.44L654.636,884.758L649.332,884.758L649.332,871.44L646.436,871.44L646.436,867.517L649.332,867.517L649.332,865.378C649.332,863.414 649.972,861.831 651.252,860.63C652.531,859.429 654.271,858.829 656.471,858.829C657.549,858.829 658.447,858.941 659.165,859.165L659.165,863.307Z" style="fill:white;fill-rule:nonzero;stroke:black;stroke-width:0.75px;"/>
                        <path d="M669.352,885.179C666.478,885.179 664.219,884.373 662.575,882.763C660.93,881.152 660.108,878.966 660.108,876.205C660.108,873.353 660.961,871.123 662.667,869.512C664.374,867.901 666.68,867.096 669.587,867.096C672.45,867.096 674.695,867.901 676.322,869.512C677.95,871.123 678.764,873.252 678.764,875.901C678.764,878.764 677.925,881.026 676.246,882.687C674.568,884.348 672.27,885.179 669.352,885.179ZM669.486,871.17C668.229,871.17 667.253,871.602 666.557,872.467C665.861,873.331 665.513,874.554 665.513,876.137C665.513,879.448 666.849,881.104 669.52,881.104C672.068,881.104 673.342,879.404 673.342,876.002C673.342,872.781 672.057,871.17 669.486,871.17Z" style="fill:white;fill-rule:nonzero;stroke:black;stroke-width:0.75px;"/>
                        <path d="M698.177,867.517L692.486,875.868L698.143,884.758L692.014,884.758L689.523,880.111C689.32,879.74 689.079,879.218 688.799,878.545L688.731,878.545C688.563,879.016 688.333,879.521 688.041,880.06L685.532,884.758L679.42,884.758L685.246,876.171L679.774,867.517L685.936,867.517L688.394,872.349C688.72,872.989 688.95,873.527 689.085,873.965L689.152,873.965C689.332,873.438 689.573,872.888 689.876,872.315L692.385,867.517L698.177,867.517Z" style="fill:white;fill-rule:nonzero;stroke:black;stroke-width:0.75px;"/>
                    </g>
                    <g transform="matrix(0.0829614,0,0,0.0829614,363.874,857.674)">
                        <path d="M288,32C288,14.3 273.7,0 256,0C238.3,0 224,14.3 224,32L224,274.7L150.6,201.3C138.1,188.8 117.8,188.8 105.3,201.3C92.8,213.8 92.8,234.1 105.3,246.6L233.3,374.6C245.8,387.1 266.1,387.1 278.6,374.6L406.6,246.6C419.1,234.1 419.1,213.8 406.6,201.3C394.1,188.8 373.8,188.8 361.3,201.3L288,274.7L288,32ZM64,352C28.7,352 0,380.7 0,416L0,448C0,483.3 28.7,512 64,512L448,512C483.3,512 512,483.3 512,448L512,416C512,380.7 483.3,352 448,352L346.5,352L301.2,397.3C276.2,422.3 235.7,422.3 210.7,397.3L165.5,352L64,352ZM432,408C445.166,408 456,418.834 456,432C456,445.166 445.166,456 432,456C418.834,456 408,445.166 408,432C408,418.834 418.834,408 432,408Z" style="fill:white;fill-rule:nonzero;"/>
                    </g>
                </g>
            </g>
        </g>
    </g>
    <defs>
        <linearGradient id="_Linear1" x1="0" y1="0" x2="1" y2="0" gradientUnits="userSpaceOnUse" gradientTransform="matrix(403.804,0,0,71.404,392.327,877.512)"><stop offset="0" style="stop-color:rgb(23,93,252);stop-opacity:1"/><stop offset="1" style="stop-color:rgb(152,19,250);stop-opacity:1"/></linearGradient>
    </defs>
</svg>
