<?xml version="1.0" encoding="UTF-8" standalone="no"?>
<!DOCTYPE svg PUBLIC "-//W3C//DTD SVG 1.1//EN" "http://www.w3.org/Graphics/SVG/1.1/DTD/svg11.dtd">
<svg width="100%" height="100%" viewBox="0 0 528 93" version="1.1" xmlns="http://www.w3.org/2000/svg" xmlns:xlink="http://www.w3.org/1999/xlink" xml:space="preserve" xmlns:serif="http://www.serif.com/" style="fill-rule:evenodd;clip-rule:evenodd;stroke-linejoin:round;stroke-miterlimit:2;">
    <g transform="matrix(1,0,0,1,-462,-1495.02)">
        <g transform="matrix(1,0,0,1,0,-292.077)">
            <g id="C-TextToCurve" serif:id="C TextToCurve" transform="matrix(1,0,0,1,0,20.0656)">
                <g id="C" transform="matrix(0.32,-3.53105e-17,8.56963e-18,0.0630513,462,1767.03)">
                    <rect x="0" y="0" width="1650" height="1474.95" style="fill:white;"/>
                </g>
                <g id="Download" transform="matrix(1,0,0,1,176.014,934.618)">
                    <g transform="matrix(1.26853,0,0,1.30242,-195.926,-263.973)">
                        <path d="M796.131,877.512C796.131,897.217 779.706,913.214 759.475,913.214L428.983,913.214C408.752,913.214 392.327,897.217 392.327,877.512C392.327,857.808 408.752,841.81 428.983,841.81L759.475,841.81C779.706,841.81 796.131,857.808 796.131,877.512Z" style="fill:url(#_Linear1);"/>
                    </g>
                    <g transform="matrix(1.32918,0,0,1.32918,-168.003,-280.466)">
                        <path d="M489.364,884.758L483.437,884.758L481.72,879.387L473.133,879.387L471.432,884.758L465.539,884.758L474.328,860.613L480.777,860.613L489.364,884.758ZM480.474,875.211L477.881,867.096C477.69,866.49 477.555,865.766 477.477,864.924L477.342,864.924C477.286,865.631 477.145,866.332 476.921,867.028L474.294,875.211L480.474,875.211Z" style="fill:white;fill-rule:nonzero;stroke:black;stroke-width:0.75px;"/>
                        <path d="M508.726,884.758L503.406,884.758L503.406,882.384L503.338,882.384C502.126,884.247 500.347,885.179 498.001,885.179C495.846,885.179 494.112,884.418 492.798,882.897C491.485,881.376 490.828,879.252 490.828,876.524C490.828,873.673 491.552,871.389 493,869.672C494.448,867.954 496.345,867.096 498.691,867.096C500.914,867.096 502.463,867.893 503.338,869.487L503.406,869.487L503.406,859.233L508.726,859.233L508.726,884.758ZM503.507,876.373L503.507,875.076C503.507,873.954 503.181,873.022 502.53,872.281C501.879,871.541 501.032,871.17 499.988,871.17C498.809,871.17 497.889,871.633 497.226,872.559C496.564,873.485 496.233,874.757 496.233,876.373C496.233,877.888 496.553,879.056 497.193,879.875C497.833,880.694 498.719,881.104 499.853,881.104C500.931,881.104 501.809,880.672 502.488,879.808C503.167,878.943 503.507,877.798 503.507,876.373Z" style="fill:white;fill-rule:nonzero;stroke:black;stroke-width:0.75px;"/>
                        <path d="M530.076,884.758L524.755,884.758L524.755,882.384L524.688,882.384C523.475,884.247 521.696,885.179 519.35,885.179C517.195,885.179 515.461,884.418 514.148,882.897C512.834,881.376 512.178,879.252 512.178,876.524C512.178,873.673 512.902,871.389 514.35,869.672C515.798,867.954 517.695,867.096 520.041,867.096C522.263,867.096 523.812,867.893 524.688,869.487L524.755,869.487L524.755,859.233L530.076,859.233L530.076,884.758ZM524.856,876.373L524.856,875.076C524.856,873.954 524.531,873.022 523.88,872.281C523.228,871.541 522.381,871.17 521.337,871.17C520.159,871.17 519.238,871.633 518.576,872.559C517.914,873.485 517.582,874.757 517.582,876.373C517.582,877.888 517.902,879.056 518.542,879.875C519.182,880.694 520.069,881.104 521.202,881.104C522.28,881.104 523.158,880.672 523.837,879.808C524.517,878.943 524.856,877.798 524.856,876.373Z" style="fill:white;fill-rule:nonzero;stroke:black;stroke-width:0.75px;"/>
                        <path d="M554.489,884.556C553.704,884.971 552.519,885.179 550.937,885.179C547.188,885.179 545.313,883.231 545.313,879.336L545.313,871.44L542.518,871.44L542.518,867.517L545.313,867.517L545.313,863.796L550.617,862.28L550.617,867.517L554.489,867.517L554.489,871.44L550.617,871.44L550.617,878.41C550.617,880.206 551.33,881.104 552.755,881.104C553.316,881.104 553.894,880.941 554.489,880.616L554.489,884.556Z" style="fill:white;fill-rule:nonzero;stroke:black;stroke-width:0.75px;"/>
                        <path d="M565.568,885.179C562.695,885.179 560.436,884.373 558.791,882.763C557.147,881.152 556.325,878.966 556.325,876.205C556.325,873.353 557.178,871.123 558.884,869.512C560.59,867.901 562.897,867.096 565.804,867.096C568.666,867.096 570.911,867.901 572.539,869.512C574.166,871.123 574.98,873.252 574.98,875.901C574.98,878.764 574.141,881.026 572.463,882.687C570.785,884.348 568.487,885.179 565.568,885.179ZM565.703,871.17C564.446,871.17 563.469,871.602 562.773,872.467C562.077,873.331 561.729,874.554 561.729,876.137C561.729,879.448 563.065,881.104 565.736,881.104C568.284,881.104 569.558,879.404 569.558,876.002C569.558,872.781 568.273,871.17 565.703,871.17Z" style="fill:white;fill-rule:nonzero;stroke:black;stroke-width:0.75px;"/>
                        <path d="M598.67,885.179C595.213,885.179 592.395,884.053 590.218,881.803C588.04,879.552 586.951,876.62 586.951,873.005C586.951,869.189 588.057,866.102 590.268,863.745C592.479,861.388 595.409,860.209 599.057,860.209C602.503,860.209 605.29,861.337 607.417,863.594C609.544,865.85 610.607,868.824 610.607,872.517C610.607,876.311 609.504,879.37 607.299,881.693C605.093,884.017 602.217,885.179 598.67,885.179ZM598.905,864.89C596.997,864.89 595.482,865.606 594.359,867.037C593.237,868.468 592.676,870.362 592.676,872.719C592.676,875.11 593.237,877.001 594.359,878.393C595.482,879.785 596.952,880.481 598.771,880.481C600.645,880.481 602.133,879.805 603.233,878.452C604.333,877.1 604.883,875.222 604.883,872.82C604.883,870.317 604.349,868.37 603.283,866.978C602.217,865.586 600.758,864.89 598.905,864.89Z" style="fill:white;fill-rule:nonzero;stroke:black;stroke-width:0.75px;"/>
                        <path d="M619.48,882.754L619.413,882.754L619.413,892.688L614.092,892.688L614.092,867.517L619.413,867.517L619.413,870.11L619.48,870.11C620.794,868.1 622.64,867.096 625.02,867.096C627.253,867.096 628.979,867.862 630.197,869.394C631.415,870.926 632.024,873.011 632.024,875.649C632.024,878.522 631.314,880.829 629.894,882.569C628.474,884.309 626.586,885.179 624.228,885.179C622.152,885.179 620.569,884.371 619.48,882.754ZM619.329,875.683L619.329,877.063C619.329,878.253 619.643,879.224 620.272,879.976C620.9,880.728 621.725,881.104 622.747,881.104C623.959,881.104 624.899,880.635 625.567,879.698C626.235,878.761 626.569,877.434 626.569,875.716C626.569,872.686 625.39,871.17 623.033,871.17C621.944,871.17 621.055,871.583 620.364,872.408C619.674,873.233 619.329,874.324 619.329,875.683Z" style="fill:white;fill-rule:nonzero;stroke:black;stroke-width:0.75px;"/>
                        <path d="M650.966,877.653L639.718,877.653C639.898,880.156 641.475,881.407 644.45,881.407C646.347,881.407 648.014,880.958 649.45,880.06L649.45,883.899C647.856,884.752 645.785,885.179 643.237,885.179C640.454,885.179 638.293,884.407 636.755,882.864C635.217,881.32 634.448,879.168 634.448,876.407C634.448,873.544 635.279,871.277 636.94,869.604C638.602,867.932 640.645,867.096 643.069,867.096C645.583,867.096 647.528,867.842 648.903,869.335C650.278,870.828 650.966,872.854 650.966,875.413L650.966,877.653ZM646.032,874.386C646.032,871.917 645.033,870.682 643.035,870.682C642.182,870.682 641.444,871.036 640.821,871.743C640.198,872.45 639.82,873.331 639.685,874.386L646.032,874.386Z" style="fill:white;fill-rule:nonzero;stroke:black;stroke-width:0.75px;"/>
                        <path d="M665.378,872.315C664.738,871.967 663.992,871.793 663.139,871.793C661.983,871.793 661.079,872.217 660.428,873.064C659.777,873.912 659.452,875.065 659.452,876.524L659.452,884.758L654.131,884.758L654.131,867.517L659.452,867.517L659.452,870.716L659.519,870.716C660.361,868.381 661.876,867.214 664.065,867.214C664.626,867.214 665.064,867.281 665.378,867.416L665.378,872.315Z" style="fill:white;fill-rule:nonzero;stroke:black;stroke-width:0.75px;"/>
                        <path d="M682.198,884.758L677.164,884.758L677.164,882.283L677.097,882.283C675.941,884.213 674.229,885.179 671.961,885.179C670.289,885.179 668.973,884.704 668.013,883.756C667.053,882.807 666.574,881.542 666.574,879.959C666.574,876.614 668.555,874.684 672.517,874.167L677.198,873.544C677.198,871.659 676.176,870.716 674.133,870.716C672.079,870.716 670.126,871.327 668.274,872.551L668.274,868.544C669.015,868.162 670.028,867.825 671.313,867.533C672.598,867.242 673.769,867.096 674.824,867.096C679.74,867.096 682.198,869.548 682.198,874.453L682.198,884.758ZM677.198,877.754L677.198,876.592L674.066,876.996C672.337,877.22 671.473,878 671.473,879.336C671.473,879.942 671.684,880.439 672.105,880.826C672.525,881.214 673.095,881.407 673.814,881.407C674.813,881.407 675.626,881.062 676.255,880.372C676.883,879.681 677.198,878.809 677.198,877.754Z" style="fill:white;fill-rule:nonzero;stroke:black;stroke-width:0.75px;"/>
                    </g>
                    <g transform="matrix(0.0829614,0,0,0.0829614,376.972,857.674)">
                        <path d="M288,32C288,14.3 273.7,0 256,0C238.3,0 224,14.3 224,32L224,274.7L150.6,201.3C138.1,188.8 117.8,188.8 105.3,201.3C92.8,213.8 92.8,234.1 105.3,246.6L233.3,374.6C245.8,387.1 266.1,387.1 278.6,374.6L406.6,246.6C419.1,234.1 419.1,213.8 406.6,201.3C394.1,188.8 373.8,188.8 361.3,201.3L288,274.7L288,32ZM64,352C28.7,352 0,380.7 0,416L0,448C0,483.3 28.7,512 64,512L448,512C483.3,512 512,483.3 512,448L512,416C512,380.7 483.3,352 448,352L346.5,352L301.2,397.3C276.2,422.3 235.7,422.3 210.7,397.3L165.5,352L64,352ZM432,408C445.166,408 456,418.834 456,432C456,445.166 445.166,456 432,456C418.834,456 408,445.166 408,432C408,418.834 418.834,408 432,408Z" style="fill:white;fill-rule:nonzero;"/>
                    </g>
                </g>
            </g>
        </g>
    </g>
    <defs>
        <linearGradient id="_Linear1" x1="0" y1="0" x2="1" y2="0" gradientUnits="userSpaceOnUse" gradientTransform="matrix(403.804,0,0,71.404,392.327,877.512)"><stop offset="0" style="stop-color:rgb(23,93,252);stop-opacity:1"/><stop offset="1" style="stop-color:rgb(152,19,250);stop-opacity:1"/></linearGradient>
    </defs>
</svg>
