<?xml version="1.0" encoding="UTF-8" standalone="no"?>
<!DOCTYPE svg PUBLIC "-//W3C//DTD SVG 1.1//EN" "http://www.w3.org/Graphics/SVG/1.1/DTD/svg11.dtd">
<svg width="100%" height="100%" viewBox="0 0 528 93" version="1.1" xmlns="http://www.w3.org/2000/svg" xmlns:xlink="http://www.w3.org/1999/xlink" xml:space="preserve" xmlns:serif="http://www.serif.com/" style="fill-rule:evenodd;clip-rule:evenodd;stroke-linejoin:round;stroke-miterlimit:2;">
    <g transform="matrix(1,0,0,1,-462,-1495.02)">
        <g transform="matrix(1,0,0,1,0,-292.077)">
            <g id="C-Incompatible-TextToCurve" serif:id="C Incompatible TextToCurve" transform="matrix(1,0,0,1,0,20.0656)">
                <g id="C" transform="matrix(0.32,-3.53105e-17,8.56963e-18,0.0630513,462,1767.03)">
                    <rect x="0" y="0" width="1650" height="1474.95" style="fill:white;"/>
                </g>
                <g id="Download" transform="matrix(1,0,0,1,176.014,934.618)">
                    <g transform="matrix(1.30756,0,0,1.30242,-227.006,-263.973)">
                        <path d="M796.131,877.512C796.131,897.217 780.197,913.214 760.57,913.214L427.888,913.214C408.262,913.214 392.327,897.217 392.327,877.512C392.327,857.808 408.262,841.81 427.888,841.81L760.57,841.81C780.197,841.81 796.131,857.808 796.131,877.512Z" style="fill:rgb(255,225,224);"/>
                    </g>
                    <g transform="matrix(1.27485,0,0,1.32918,-271.011,-280.466)">
                        <path d="M487.815,874.302C487.815,881.553 484.436,885.179 477.679,885.179C471.123,885.179 467.846,881.637 467.846,874.554L467.846,860.613L473.301,860.613L473.301,874.622C473.301,878.528 474.828,880.481 477.881,880.481C480.878,880.481 482.376,878.595 482.376,874.824L482.376,860.613L487.815,860.613L487.815,874.302Z" style="fill:rgb(252,0,0);fill-rule:nonzero;"/>
                        <path d="M509.198,884.758L503.894,884.758L503.894,875.177C503.894,872.506 502.94,871.17 501.032,871.17C500.111,871.17 499.354,871.524 498.759,872.231C498.164,872.938 497.866,873.836 497.866,874.925L497.866,884.758L492.546,884.758L492.546,867.517L497.866,867.517L497.866,870.244L497.934,870.244C499.202,868.145 501.048,867.096 503.473,867.096C507.289,867.096 509.198,869.464 509.198,874.201L509.198,884.758Z" style="fill:rgb(252,0,0);fill-rule:nonzero;"/>
                        <path d="M512.279,884.303L512.279,879.993C513.154,880.52 514.027,880.913 514.897,881.171C515.767,881.43 516.589,881.559 517.364,881.559C518.306,881.559 519.05,881.43 519.594,881.171C520.139,880.913 520.411,880.52 520.411,879.993C520.411,879.656 520.288,879.376 520.041,879.151C519.794,878.927 519.477,878.73 519.089,878.562C518.702,878.393 518.278,878.242 517.818,878.107C517.358,877.972 516.915,877.821 516.488,877.653C515.803,877.394 515.2,877.117 514.678,876.819C514.156,876.522 513.718,876.176 513.365,875.784C513.011,875.391 512.742,874.936 512.557,874.42C512.371,873.903 512.279,873.292 512.279,872.585C512.279,871.619 512.489,870.789 512.91,870.093C513.331,869.397 513.892,868.827 514.594,868.384C515.295,867.94 516.098,867.615 517.002,867.407C517.905,867.2 518.845,867.096 519.822,867.096C520.585,867.096 521.36,867.155 522.145,867.272C522.931,867.39 523.706,867.562 524.469,867.786L524.469,871.894C523.795,871.501 523.074,871.207 522.305,871.01C521.536,870.814 520.782,870.716 520.041,870.716C519.693,870.716 519.364,870.747 519.056,870.808C518.747,870.87 518.475,870.96 518.239,871.078C518.003,871.196 517.818,871.347 517.683,871.532C517.549,871.717 517.481,871.928 517.481,872.164C517.481,872.478 517.582,872.747 517.785,872.972C517.987,873.196 518.25,873.39 518.576,873.553C518.901,873.715 519.263,873.861 519.662,873.99C520.06,874.12 520.456,874.251 520.849,874.386C521.556,874.633 522.196,874.902 522.768,875.194C523.341,875.486 523.832,875.829 524.242,876.221C524.651,876.614 524.966,877.074 525.184,877.602C525.403,878.13 525.513,878.758 525.513,879.488C525.513,880.509 525.291,881.382 524.848,882.106C524.404,882.83 523.815,883.419 523.08,883.874C522.345,884.328 521.497,884.66 520.537,884.867C519.578,885.075 518.581,885.179 517.549,885.179C515.652,885.179 513.895,884.887 512.279,884.303Z" style="fill:rgb(252,0,0);fill-rule:nonzero;"/>
                        <path d="M544.96,884.758L539.656,884.758L539.656,882.131L539.572,882.131C538.258,884.163 536.502,885.179 534.302,885.179C530.306,885.179 528.308,882.76 528.308,877.922L528.308,867.517L533.611,867.517L533.611,877.45C533.611,879.886 534.577,881.104 536.507,881.104C537.461,881.104 538.225,880.77 538.797,880.102C539.37,879.434 539.656,878.528 539.656,877.383L539.656,867.517L544.96,867.517L544.96,884.758Z" style="fill:rgb(252,0,0);fill-rule:nonzero;"/>
                        <path d="M554.826,882.754L554.759,882.754L554.759,892.688L549.438,892.688L549.438,867.517L554.759,867.517L554.759,870.11L554.826,870.11C556.139,868.1 557.986,867.096 560.365,867.096C562.599,867.096 564.325,867.862 565.543,869.394C566.761,870.926 567.37,873.011 567.37,875.649C567.37,878.522 566.66,880.829 565.24,882.569C563.82,884.309 561.931,885.179 559.574,885.179C557.498,885.179 555.915,884.371 554.826,882.754ZM554.675,875.683L554.675,877.063C554.675,878.253 554.989,879.224 555.617,879.976C556.246,880.728 557.071,881.104 558.092,881.104C559.305,881.104 560.245,880.635 560.913,879.698C561.581,878.761 561.914,877.434 561.914,875.716C561.914,872.686 560.736,871.17 558.379,871.17C557.29,871.17 556.4,871.583 555.71,872.408C555.02,873.233 554.675,874.324 554.675,875.683Z" style="fill:rgb(252,0,0);fill-rule:nonzero;"/>
                        <path d="M576.209,882.754L576.142,882.754L576.142,892.688L570.821,892.688L570.821,867.517L576.142,867.517L576.142,870.11L576.209,870.11C577.522,868.1 579.369,867.096 581.748,867.096C583.982,867.096 585.708,867.862 586.926,869.394C588.144,870.926 588.753,873.011 588.753,875.649C588.753,878.522 588.043,880.829 586.623,882.569C585.203,884.309 583.314,885.179 580.957,885.179C578.881,885.179 577.298,884.371 576.209,882.754ZM576.058,875.683L576.058,877.063C576.058,878.253 576.372,879.224 577,879.976C577.629,880.728 578.454,881.104 579.475,881.104C580.688,881.104 581.628,880.635 582.296,879.698C582.964,878.761 583.298,877.434 583.298,875.716C583.298,872.686 582.119,871.17 579.762,871.17C578.673,871.17 577.783,871.583 577.093,872.408C576.403,873.233 576.058,874.324 576.058,875.683Z" style="fill:rgb(252,0,0);fill-rule:nonzero;"/>
                        <path d="M600.421,885.179C597.547,885.179 595.288,884.373 593.644,882.763C591.999,881.152 591.177,878.966 591.177,876.205C591.177,873.353 592.03,871.123 593.736,869.512C595.443,867.901 597.749,867.096 600.657,867.096C603.519,867.096 605.764,867.901 607.391,869.512C609.019,871.123 609.833,873.252 609.833,875.901C609.833,878.764 608.994,881.026 607.316,882.687C605.637,884.348 603.339,885.179 600.421,885.179ZM600.555,871.17C599.298,871.17 598.322,871.602 597.626,872.467C596.93,873.331 596.582,874.554 596.582,876.137C596.582,879.448 597.918,881.104 600.589,881.104C603.137,881.104 604.411,879.404 604.411,876.002C604.411,872.781 603.126,871.17 600.555,871.17Z" style="fill:rgb(252,0,0);fill-rule:nonzero;"/>
                        <path d="M624.531,872.315C623.892,871.967 623.145,871.793 622.292,871.793C621.136,871.793 620.232,872.217 619.581,873.064C618.93,873.912 618.605,875.065 618.605,876.524L618.605,884.758L613.284,884.758L613.284,867.517L618.605,867.517L618.605,870.716L618.672,870.716C619.514,868.381 621.029,867.214 623.218,867.214C623.779,867.214 624.217,867.281 624.531,867.416L624.531,872.315Z" style="fill:rgb(252,0,0);fill-rule:nonzero;"/>
                        <path d="M638.422,884.556C637.636,884.971 636.452,885.179 634.869,885.179C631.12,885.179 629.246,883.231 629.246,879.336L629.246,871.44L626.451,871.44L626.451,867.517L629.246,867.517L629.246,863.796L634.55,862.28L634.55,867.517L638.422,867.517L638.422,871.44L634.55,871.44L634.55,878.41C634.55,880.206 635.262,881.104 636.688,881.104C637.249,881.104 637.827,880.941 638.422,880.616L638.422,884.556Z" style="fill:rgb(252,0,0);fill-rule:nonzero;"/>
                        <path d="M656.774,877.653L645.527,877.653C645.707,880.156 647.284,881.407 650.258,881.407C652.155,881.407 653.822,880.958 655.259,880.06L655.259,883.899C653.665,884.752 651.594,885.179 649.046,885.179C646.262,885.179 644.102,884.407 642.564,882.864C641.026,881.32 640.257,879.168 640.257,876.407C640.257,873.544 641.088,871.277 642.749,869.604C644.41,867.932 646.453,867.096 648.878,867.096C651.392,867.096 653.337,867.842 654.712,869.335C656.087,870.828 656.774,872.854 656.774,875.413L656.774,877.653ZM651.841,874.386C651.841,871.917 650.842,870.682 648.844,870.682C647.991,870.682 647.253,871.036 646.63,871.743C646.007,872.45 645.628,873.331 645.494,874.386L651.841,874.386Z" style="fill:rgb(252,0,0);fill-rule:nonzero;"/>
                        <path d="M676.811,884.758L671.49,884.758L671.49,882.384L671.423,882.384C670.21,884.247 668.431,885.179 666.085,885.179C663.93,885.179 662.196,884.418 660.883,882.897C659.569,881.376 658.913,879.252 658.913,876.524C658.913,873.673 659.637,871.389 661.085,869.672C662.533,867.954 664.43,867.096 666.776,867.096C668.998,867.096 670.547,867.893 671.423,869.487L671.49,869.487L671.49,859.233L676.811,859.233L676.811,884.758ZM671.591,876.373L671.591,875.076C671.591,873.954 671.266,873.022 670.614,872.281C669.963,871.541 669.116,871.17 668.072,871.17C666.893,871.17 665.973,871.633 665.311,872.559C664.649,873.485 664.317,874.757 664.317,876.373C664.317,877.888 664.637,879.056 665.277,879.875C665.917,880.694 666.804,881.104 667.937,881.104C669.015,881.104 669.893,880.672 670.572,879.808C671.251,878.943 671.591,877.798 671.591,876.373Z" style="fill:rgb(252,0,0);fill-rule:nonzero;"/>
                        <path d="M691.324,884.758L691.324,860.613L700.113,860.613C702.807,860.613 704.878,861.107 706.326,862.095C707.774,863.083 708.498,864.475 708.498,866.271C708.498,867.573 708.057,868.712 707.176,869.689C706.295,870.665 705.17,871.344 703.8,871.726L703.8,871.793C705.518,872.006 706.89,872.641 707.917,873.696C708.944,874.751 709.458,876.036 709.458,877.551C709.458,879.763 708.666,881.517 707.084,882.813C705.501,884.11 703.34,884.758 700.601,884.758L691.324,884.758ZM696.762,864.621L696.762,870.345L699.153,870.345C700.276,870.345 701.16,870.073 701.805,869.529C702.451,868.984 702.773,868.235 702.773,867.281C702.773,865.507 701.449,864.621 698.8,864.621L696.762,864.621ZM696.762,874.386L696.762,880.751L699.709,880.751C700.966,880.751 701.951,880.459 702.664,879.875C703.377,879.291 703.733,878.494 703.733,877.484C703.733,876.519 703.382,875.761 702.681,875.211C701.979,874.661 701,874.386 699.743,874.386L696.762,874.386Z" style="fill:rgb(252,0,0);fill-rule:nonzero;"/>
                        <path d="M724.156,872.315C723.517,871.967 722.77,871.793 721.917,871.793C720.761,871.793 719.857,872.217 719.206,873.064C718.555,873.912 718.23,875.065 718.23,876.524L718.23,884.758L712.909,884.758L712.909,867.517L718.23,867.517L718.23,870.716L718.297,870.716C719.139,868.381 720.654,867.214 722.843,867.214C723.404,867.214 723.842,867.281 724.156,867.416L724.156,872.315Z" style="fill:rgb(252,0,0);fill-rule:nonzero;"/>
                        <path d="M734.713,885.179C731.84,885.179 729.581,884.373 727.936,882.763C726.292,881.152 725.47,878.966 725.47,876.205C725.47,873.353 726.323,871.123 728.029,869.512C729.735,867.901 732.042,867.096 734.949,867.096C737.811,867.096 740.056,867.901 741.684,869.512C743.311,871.123 744.125,873.252 744.125,875.901C744.125,878.764 743.286,881.026 741.608,882.687C739.93,884.348 737.632,885.179 734.713,885.179ZM734.848,871.17C733.591,871.17 732.614,871.602 731.918,872.467C731.222,873.331 730.874,874.554 730.874,876.137C730.874,879.448 732.21,881.104 734.882,881.104C737.43,881.104 738.704,879.404 738.704,876.002C738.704,872.781 737.418,871.17 734.848,871.17Z" style="fill:rgb(252,0,0);fill-rule:nonzero;"/>
                        <path d="M772.546,867.517L767.579,884.758L761.989,884.758L759.447,874.656C759.278,873.982 759.183,873.247 759.161,872.45L759.06,872.45C758.981,873.325 758.869,874.038 758.723,874.588L755.995,884.758L750.473,884.758L745.607,867.517L751.028,867.517L753.402,878.764C753.515,879.291 753.599,879.931 753.655,880.683L753.756,880.683C753.812,879.897 753.913,879.235 754.059,878.696L757.022,867.517L762.09,867.517L764.75,878.764C764.818,879.044 764.896,879.695 764.986,880.717L765.104,880.717C765.16,880.066 765.25,879.415 765.373,878.764L767.613,867.517L772.546,867.517Z" style="fill:rgb(252,0,0);fill-rule:nonzero;"/>
                        <path d="M773.944,884.303L773.944,879.993C774.819,880.52 775.692,880.913 776.562,881.171C777.432,881.43 778.254,881.559 779.028,881.559C779.971,881.559 780.715,881.43 781.259,881.171C781.804,880.913 782.076,880.52 782.076,879.993C782.076,879.656 781.952,879.376 781.705,879.151C781.458,878.927 781.141,878.73 780.754,878.562C780.367,878.393 779.943,878.242 779.483,878.107C779.023,877.972 778.579,877.821 778.153,877.653C777.468,877.394 776.865,877.117 776.343,876.819C775.821,876.522 775.383,876.176 775.03,875.784C774.676,875.391 774.407,874.936 774.221,874.42C774.036,873.903 773.944,873.292 773.944,872.585C773.944,871.619 774.154,870.789 774.575,870.093C774.996,869.397 775.557,868.827 776.259,868.384C776.96,867.94 777.763,867.615 778.666,867.407C779.57,867.2 780.51,867.096 781.487,867.096C782.25,867.096 783.024,867.155 783.81,867.272C784.596,867.39 785.37,867.562 786.134,867.786L786.134,871.894C785.46,871.501 784.739,871.207 783.97,871.01C783.201,870.814 782.446,870.716 781.705,870.716C781.357,870.716 781.029,870.747 780.72,870.808C780.412,870.87 780.14,870.96 779.904,871.078C779.668,871.196 779.483,871.347 779.348,871.532C779.214,871.717 779.146,871.928 779.146,872.164C779.146,872.478 779.247,872.747 779.449,872.972C779.651,873.196 779.915,873.39 780.241,873.553C780.566,873.715 780.928,873.861 781.327,873.99C781.725,874.12 782.121,874.251 782.514,874.386C783.221,874.633 783.861,874.902 784.433,875.194C785.005,875.486 785.497,875.829 785.906,876.221C786.316,876.614 786.63,877.074 786.849,877.602C787.068,878.13 787.177,878.758 787.177,879.488C787.177,880.509 786.956,881.382 786.512,882.106C786.069,882.83 785.48,883.419 784.744,883.874C784.009,884.328 783.162,884.66 782.202,884.867C781.242,885.075 780.246,885.179 779.214,885.179C777.317,885.179 775.56,884.887 773.944,884.303Z" style="fill:rgb(252,0,0);fill-rule:nonzero;"/>
                        <path d="M805.732,877.653L794.485,877.653C794.664,880.156 796.241,881.407 799.216,881.407C801.113,881.407 802.78,880.958 804.217,880.06L804.217,883.899C802.623,884.752 800.552,885.179 798.004,885.179C795.22,885.179 793.059,884.407 791.521,882.864C789.984,881.32 789.215,879.168 789.215,876.407C789.215,873.544 790.045,871.277 791.707,869.604C793.368,867.932 795.411,867.096 797.835,867.096C800.35,867.096 802.294,867.842 803.669,869.335C805.044,870.828 805.732,872.854 805.732,875.413L805.732,877.653ZM800.799,874.386C800.799,871.917 799.8,870.682 797.802,870.682C796.949,870.682 796.211,871.036 795.588,871.743C794.965,872.45 794.586,873.331 794.451,874.386L800.799,874.386Z" style="fill:rgb(252,0,0);fill-rule:nonzero;"/>
                        <path d="M820.144,872.315C819.505,871.967 818.758,871.793 817.905,871.793C816.749,871.793 815.845,872.217 815.194,873.064C814.543,873.912 814.218,875.065 814.218,876.524L814.218,884.758L808.897,884.758L808.897,867.517L814.218,867.517L814.218,870.716L814.285,870.716C815.127,868.381 816.642,867.214 818.831,867.214C819.392,867.214 819.83,867.281 820.144,867.416L820.144,872.315Z" style="fill:rgb(252,0,0);fill-rule:nonzero;"/>
                    </g>
                </g>
            </g>
        </g>
    </g>
</svg>
