<?xml version="1.0" encoding="UTF-8" standalone="no"?>
<!DOCTYPE svg PUBLIC "-//W3C//DTD SVG 1.1//EN" "http://www.w3.org/Graphics/SVG/1.1/DTD/svg11.dtd">
<svg width="100%" height="100%" viewBox="0 0 528 93" version="1.1" xmlns="http://www.w3.org/2000/svg" xmlns:xlink="http://www.w3.org/1999/xlink" xml:space="preserve" xmlns:serif="http://www.serif.com/" style="fill-rule:evenodd;clip-rule:evenodd;stroke-linejoin:round;stroke-miterlimit:2;">
    <g transform="matrix(1,0,0,1,-1023,-1495.02)">
        <g transform="matrix(1,0,0,1,0,-292.077)">
            <g id="E-TexttoCurve" serif:id="E TexttoCurve" transform="matrix(1,0,0,1,561,20.0656)">
                <g id="C" transform="matrix(0.32,-3.53105e-17,8.56963e-18,0.0630513,462,1767.03)">
                    <rect x="0" y="0" width="1650" height="1474.95" style="fill:white;"/>
                </g>
                <g id="Download" transform="matrix(1,0,0,1,176.014,934.618)">
                    <g transform="matrix(1.26853,0,0,1.30242,-195.926,-263.973)">
                        <path d="M796.131,877.512C796.131,897.217 779.706,913.214 759.475,913.214L428.983,913.214C408.752,913.214 392.327,897.217 392.327,877.512C392.327,857.808 408.752,841.81 428.983,841.81L759.475,841.81C779.706,841.81 796.131,857.808 796.131,877.512Z" style="fill:rgb(248,250,254);"/>
                        <path d="M796.131,877.512C796.131,897.217 779.706,913.214 759.475,913.214L428.983,913.214C408.752,913.214 392.327,897.217 392.327,877.512C392.327,857.808 408.752,841.81 428.983,841.81L759.475,841.81C779.706,841.81 796.131,857.808 796.131,877.512ZM792.889,877.512C792.889,859.551 777.917,844.968 759.475,844.968L428.983,844.968C410.542,844.968 395.57,859.551 395.57,877.512C395.57,895.474 410.542,910.056 428.983,910.056L759.475,910.056C777.917,910.056 792.889,895.474 792.889,877.512Z" style="fill:rgb(225,229,239);"/>
                    </g>
                    <g transform="matrix(1.32918,0,0,1.32918,-210.213,-280.466)">
                        <path d="M473.57,876.44L473.57,884.758L468.132,884.758L468.132,860.613L476.652,860.613C482.735,860.613 485.777,863.178 485.777,868.308C485.777,870.732 484.905,872.694 483.159,874.193C481.414,875.691 479.082,876.44 476.163,876.44L473.57,876.44ZM473.57,864.789L473.57,872.315L475.709,872.315C478.605,872.315 480.053,871.047 480.053,868.51C480.053,866.029 478.605,864.789 475.709,864.789L473.57,864.789Z" style="fill:rgb(49,62,84);fill-rule:nonzero;"/>
                        <path d="M500.038,872.315C499.398,871.967 498.652,871.793 497.799,871.793C496.643,871.793 495.739,872.217 495.088,873.064C494.437,873.912 494.112,875.065 494.112,876.524L494.112,884.758L488.791,884.758L488.791,867.517L494.112,867.517L494.112,870.716L494.179,870.716C495.021,868.381 496.536,867.214 498.725,867.214C499.286,867.214 499.724,867.281 500.038,867.416L500.038,872.315Z" style="fill:rgb(49,62,84);fill-rule:nonzero;"/>
                        <path d="M505.342,864.789C504.444,864.789 503.709,864.522 503.136,863.989C502.564,863.456 502.278,862.802 502.278,862.028C502.278,861.231 502.564,860.58 503.136,860.075C503.709,859.57 504.444,859.317 505.342,859.317C506.251,859.317 506.989,859.57 507.556,860.075C508.123,860.58 508.406,861.231 508.406,862.028C508.406,862.836 508.123,863.498 507.556,864.015C506.989,864.531 506.251,864.789 505.342,864.789ZM507.969,884.758L502.648,884.758L502.648,867.517L507.969,867.517L507.969,884.758Z" style="fill:rgb(49,62,84);fill-rule:nonzero;"/>
                        <path d="M528.863,867.517L522.448,884.758L516.387,884.758L510.275,867.517L515.966,867.517L518.963,878.141C519.3,879.342 519.496,880.363 519.552,881.205L519.62,881.205C519.698,880.408 519.906,879.42 520.243,878.242L523.307,867.517L528.863,867.517Z" style="fill:rgb(49,62,84);fill-rule:nonzero;"/>
                        <path d="M544.96,884.758L539.925,884.758L539.925,882.283L539.858,882.283C538.702,884.213 536.99,885.179 534.723,885.179C533.05,885.179 531.734,884.704 530.774,883.756C529.815,882.807 529.335,881.542 529.335,879.959C529.335,876.614 531.316,874.684 535.278,874.167L539.959,873.544C539.959,871.659 538.937,870.716 536.895,870.716C534.84,870.716 532.887,871.327 531.035,872.551L531.035,868.544C531.776,868.162 532.789,867.825 534.074,867.533C535.36,867.242 536.53,867.096 537.585,867.096C542.501,867.096 544.96,869.548 544.96,874.453L544.96,884.758ZM539.959,877.754L539.959,876.592L536.827,876.996C535.099,877.22 534.234,878 534.234,879.336C534.234,879.942 534.445,880.439 534.866,880.826C535.287,881.214 535.856,881.407 536.575,881.407C537.574,881.407 538.387,881.062 539.016,880.372C539.645,879.681 539.959,878.809 539.959,877.754Z" style="fill:rgb(49,62,84);fill-rule:nonzero;"/>
                        <path d="M562.234,884.135C561.033,884.831 559.299,885.179 557.032,885.179C554.383,885.179 552.239,884.376 550.6,882.771C548.961,881.166 548.142,879.095 548.142,876.558C548.142,873.628 549.02,871.319 550.777,869.63C552.533,867.94 554.882,867.096 557.823,867.096C559.855,867.096 561.325,867.365 562.234,867.904L562.234,872.416C561.123,871.586 559.883,871.17 558.513,871.17C556.987,871.17 555.777,871.616 554.885,872.509C553.993,873.401 553.546,874.633 553.546,876.205C553.546,877.731 553.973,878.929 554.826,879.799C555.679,880.669 556.852,881.104 558.345,881.104C559.67,881.104 560.966,880.689 562.234,879.858L562.234,884.135Z" style="fill:rgb(49,62,84);fill-rule:nonzero;"/>
                        <path d="M582.136,867.517L575.132,886.138C573.448,890.617 570.911,892.856 567.521,892.856C566.23,892.856 565.17,892.71 564.339,892.419L564.339,888.176C565.046,888.591 565.815,888.799 566.646,888.799C568.015,888.799 568.969,888.153 569.508,886.862L570.417,884.724L563.413,867.517L569.306,867.517L572.522,878.006C572.724,878.657 572.881,879.426 572.993,880.313L573.061,880.313C573.162,879.662 573.347,878.904 573.616,878.04L576.866,867.517L582.136,867.517Z" style="fill:rgb(49,62,84);fill-rule:nonzero;"/>
                        <path d="M599.747,876.44L599.747,884.758L594.309,884.758L594.309,860.613L602.828,860.613C608.912,860.613 611.954,863.178 611.954,868.308C611.954,870.732 611.081,872.694 609.336,874.193C607.591,875.691 605.259,876.44 602.34,876.44L599.747,876.44ZM599.747,864.789L599.747,872.315L601.886,872.315C604.782,872.315 606.23,871.047 606.23,868.51C606.23,866.029 604.782,864.789 601.886,864.789L599.747,864.789Z" style="fill:rgb(49,62,84);fill-rule:nonzero;"/>
                        <path d="M622.157,885.179C619.284,885.179 617.025,884.373 615.381,882.763C613.736,881.152 612.914,878.966 612.914,876.205C612.914,873.353 613.767,871.123 615.473,869.512C617.179,867.901 619.486,867.096 622.393,867.096C625.255,867.096 627.5,867.901 629.128,869.512C630.756,871.123 631.569,873.252 631.569,875.901C631.569,878.764 630.73,881.026 629.052,882.687C627.374,884.348 625.076,885.179 622.157,885.179ZM622.292,871.17C621.035,871.17 620.058,871.602 619.362,872.467C618.667,873.331 618.319,874.554 618.319,876.137C618.319,879.448 619.654,881.104 622.326,881.104C624.874,881.104 626.148,879.404 626.148,876.002C626.148,872.781 624.863,871.17 622.292,871.17Z" style="fill:rgb(49,62,84);fill-rule:nonzero;"/>
                        <rect x="635.021" y="859.233" width="5.321" height="25.525" style="fill:rgb(49,62,84);fill-rule:nonzero;"/>
                        <path d="M647.514,864.789C646.616,864.789 645.881,864.522 645.308,863.989C644.736,863.456 644.45,862.802 644.45,862.028C644.45,861.231 644.736,860.58 645.308,860.075C645.881,859.57 646.616,859.317 647.514,859.317C648.423,859.317 649.161,859.57 649.728,860.075C650.295,860.58 650.578,861.231 650.578,862.028C650.578,862.836 650.295,863.498 649.728,864.015C649.161,864.531 648.423,864.789 647.514,864.789ZM650.141,884.758L644.82,884.758L644.82,867.517L650.141,867.517L650.141,884.758Z" style="fill:rgb(49,62,84);fill-rule:nonzero;"/>
                        <path d="M667.685,884.135C666.484,884.831 664.75,885.179 662.482,885.179C659.833,885.179 657.689,884.376 656.05,882.771C654.412,881.166 653.592,879.095 653.592,876.558C653.592,873.628 654.471,871.319 656.227,869.63C657.984,867.94 660.333,867.096 663.274,867.096C665.305,867.096 666.776,867.365 667.685,867.904L667.685,872.416C666.574,871.586 665.333,871.17 663.964,871.17C662.437,871.17 661.228,871.616 660.335,872.509C659.443,873.401 658.997,874.633 658.997,876.205C658.997,877.731 659.423,878.929 660.277,879.799C661.13,880.669 662.303,881.104 663.795,881.104C665.12,881.104 666.416,880.689 667.685,879.858L667.685,884.135Z" style="fill:rgb(49,62,84);fill-rule:nonzero;"/>
                        <path d="M687.586,867.517L680.582,886.138C678.898,890.617 676.362,892.856 672.972,892.856C671.681,892.856 670.62,892.71 669.789,892.419L669.789,888.176C670.497,888.591 671.266,888.799 672.096,888.799C673.466,888.799 674.42,888.153 674.958,886.862L675.868,884.724L668.863,867.517L674.756,867.517L677.972,878.006C678.174,878.657 678.331,879.426 678.444,880.313L678.511,880.313C678.612,879.662 678.797,878.904 679.067,878.04L682.316,867.517L687.586,867.517Z" style="fill:rgb(49,62,84);fill-rule:nonzero;"/>
                    </g>
                </g>
            </g>
        </g>
    </g>
</svg>
